<svg xmlns="http://www.w3.org/2000/svg" viewBox="0 0 931.94 615.11"><title>tiago-03</title><g id="Capa_2" data-name="Capa 2"><path d="M476.84,158.8l-7.58-5.66c-1.84.92-1.79,2.73-2.28,4.11-2.34,6.6-4.56,13.26-6.74,19.92-.85,2.59-1.5,5.25-2.31,8.12,1.82.73,3.46,1.47,5.15,2,7.85,2.59,15.82,4.86,23.54,7.8,5.87,2.23,11.64,1.82,17.63,1.3,5.13-.46,10.32-.27,15.48-.32a5.44,5.44,0,0,1,1.52.5l-5.44,7.08c1.38,2.19,3.62,2.11,5.38,2.73,6.16,2.18,12.42,4.09,18.64,6.12,2.51.82,5,1.69,7.51,2.54.32.11.83.14.91.34a4.44,4.44,0,0,1,.48,2.23c-.19.85-1,.87-1.85.58-2.71-1-5.44-1.88-8.17-2.79-4.41-1.46-8.82-2.89-13.22-4.37-2.58-.86-5.16-1.75-7.72-2.68s-3.76-.21-3.74,2.66c0,2,.26,3.92.41,6-1,.8-1.72-.23-2.44-.75-1.67-1.23-3.26-2.58-4.88-3.88-4.93-3.94-9.76-8-14.86-11.76-2-1.46-4.6-2.18-7-3-5.31-1.84-10.68-3.51-16-5.28-3.13-1-6.23-2.15-9.37-3.14a9.41,9.41,0,0,0-2.47,0c.15.91.31,1.6.37,2.3.19,2.4.52,4.8.47,7.2s-2.25,3.74-4.61,3c-2.79-.82-4.95-2.64-7.12-4.48-3.43-2.9-6.89-5.76-10.34-8.63a7.52,7.52,0,0,0-.82-.57c-.83-.51-1.78-1.49-2.65-.6a3.65,3.65,0,0,0-.72,2.71c.66,4.17,1.55,8.3,2.27,12.47a56.43,56.43,0,0,1,1,7.63,8.69,8.69,0,0,1-1.15,4c-.74,1.42-2.18,1.65-3.95.89-3.42-1.45-6.17-3.88-9-6.25-3-2.57-6.16-5.07-9.3-7.52a11.11,11.11,0,0,0-2.58-1.05,16,16,0,0,0-.18,6.76c.37,2.44,1.26,4.81,1.53,7.25.37,3.29,1.72,6.45,1.24,9.84a10.37,10.37,0,0,1-.09,1.49c-.93,3.05-2.56,4.1-5.38,2.83a19,19,0,0,1-4-2.52c-4-3.24-7.94-6.58-11.93-9.85-1.08-.88-2.29-1.62-3.36-2.36a1.77,1.77,0,0,0-1.7,2,17.49,17.49,0,0,0,.19,3c.89,5.57,1.85,11.13,2.73,16.7a12.91,12.91,0,0,1,0,3c-.28,3.71-2.54,4.63-6,3.07a17.84,17.84,0,0,1-3.94-2.58c-4.07-3.31-8-6.73-12.11-10a27.34,27.34,0,0,0-3.56-2.06,25.51,25.51,0,0,0,.11,8.7c.59,2.9,1.06,5.83,1.58,8.75.17,1,.41,1.94.52,2.92a24,24,0,0,1,.36,4.69C365,255.3,362,256.73,359,255a44,44,0,0,1-5.28-3.76c-3.75-3-7.42-6.15-11.18-9.16a16.47,16.47,0,0,0-2.88-1.46c-1.12,2-.75,3.79-.41,5.56.24,1.21.44,2.43.66,3.65.46,2.52,1.05,5,1.34,7.58.33,3,.49,5.94.54,8.92,0,1.77-1.46,2.46-2.8,3.12-4.19-.73-7-3.6-10.12-6.1s-6.42-5.27-9.7-7.83a13.45,13.45,0,0,0-2.85-1.21,10.48,10.48,0,0,0-.4,2.33c.25,2.39.89,4.78.85,7.15-.05,2.81,1.62,4.37,3.33,6.08q15.45,15.46,30.88,30.94,15.72,15.71,31.47,31.39c1.76,1.75,2.12,1.81,4.31.56,8.28-4.76,16.4-9.83,24.88-14.18,5.33-2.74,8.44-7.37,12.13-11.58,2.69-3.06,5.23-6.24,7.84-9.37.69-.84,1.33-1.71,2.05-2.51a20.17,20.17,0,0,1,1.79-1.51c.76,3.43,1.41,6.34,2.07,9.35a4.39,4.39,0,0,0,1.24-.18q13.38-7.69,26.76-15.44a6.19,6.19,0,0,1,1.72-1,6.75,6.75,0,0,1,2.05.28,5.92,5.92,0,0,1-.44,2,4.19,4.19,0,0,1-1.59,1.14Q454.79,296.9,442.37,304c-.86.49-1.66,1.1-2.61,1.74,1.2,3.18,4.28,4.49,6.75,6.86a13.31,13.31,0,0,1-2.82,1.31c-2.68.5-5.4.76-8.08,1.22s-5.34,1-8,1.55a47.78,47.78,0,0,1-6.84,1.19A12.68,12.68,0,0,0,415,320c-7.8,4.43-15.52,9-23.27,13.5l-4.08,2.38a2.13,2.13,0,0,0-1,2.74c1.2,4.48,2.28,9,3.47,13.48q1.9,7.17,3.93,14.29a6.48,6.48,0,0,0,.87,1.45c3.29-.41,5.25-2.9,7.91-4.63a6.42,6.42,0,0,1,.56,1.75c-.05,2.24-.16,4.48-.31,6.72-.17,2.4-.4,4.8-.65,7.19-.15,1.48-.45,2.95-.58,4.43-.39,4.28-.95,8.52.36,12.81,1.52,5,2.58,10.11,3.9,15.16.79,3,1.71,6,2.55,9,.68,2.46,1.36,4.92,2,7.39a1.42,1.42,0,0,1-1.14,1.89,1.49,1.49,0,0,1-2-1.06c-.71-2.55-1.39-5.1-2.08-7.65-1.13-4.24-2.28-8.48-3.39-12.73-.77-2.94-1.46-5.91-2.22-8.86a30,30,0,0,0-4.79-10.8c-4.27-5.73-8.32-11.62-12.42-17.47a10.78,10.78,0,0,1-.85-2.06l9.46.73a13.15,13.15,0,0,0,0-3c-2-7.49-4.16-15-6.22-22.45-.48-1.75-.69-3.59-1.27-5.3a7.9,7.9,0,0,0-1.83-2.9c-5.09-5.15-10.27-10.21-15.38-15.34q-15.18-15.21-30.32-30.45-9.27-9.29-18.56-18.54a14.17,14.17,0,0,0-1.73-1.23c-.59,1.38-1,2.54-1.57,3.62a40.19,40.19,0,0,1-2.73,4.72,2.84,2.84,0,0,1-4.68.39,20.24,20.24,0,0,1-3.39-5.45c-1.85-4.51-3.4-9.14-5.12-13.7a8.7,8.7,0,0,0-3-4.61,16.29,16.29,0,0,0-1.9,2.8c-1.39,3.45-2.63,7-3.95,10.44-.89,2.34-1.7,4.71-2.78,6.95a13,13,0,0,1-2.63,3.58c-1.46,1.42-2.95,1.27-4.36-.22a20.35,20.35,0,0,1-3.91-7.16c-1.7-4.56-3.39-9.14-5.17-13.67a16.31,16.31,0,0,0-1.73-2.7,7.32,7.32,0,0,0-3,4.18c-1.83,4.89-3.56,9.82-5.44,14.69a18.24,18.24,0,0,1-2.18,3.9c-1.9,2.7-4.54,2.76-6.2-.06a60.42,60.42,0,0,1-3.74-8.08c-1.45-3.61-2.66-7.31-4.08-10.93a39.66,39.66,0,0,0-2.24-4,13.4,13.4,0,0,0-1.93,2.43c-1.28,3-2.46,6-3.63,8.94-1.25,3.17-2.34,6.41-3.72,9.51a11.06,11.06,0,0,1-2.6,3.29c-1.23,1.19-2.44,1.1-3.78.07a10.7,10.7,0,0,1-3.3-4.92c-1.81-4.79-3.51-9.62-5.36-14.39-.61-1.58-1-3.41-2.85-4.32-1.67,1-2.33,2.72-3,4.4-1.89,5-3.68,10.12-5.63,15.13a11.64,11.64,0,0,1-2.24,3.56c-1.71,1.88-3.86,1.9-5.31-.18a33.21,33.21,0,0,1-3.4-6.6c-1.76-4.36-3.28-8.83-5-13.22a26.63,26.63,0,0,0-1.88-3.32c-2.12.79-2.44,2.48-3,3.87-2,5-3.73,10.09-5.68,15.1a18.52,18.52,0,0,1-2.29,4.13c-1.5,2-4,2.23-5.52.24a23.14,23.14,0,0,1-3.08-5.63c-1.84-4.6-3.44-9.29-5.23-13.91a32,32,0,0,0-2-3.76c-2.49.87-2.79,3.05-3.6,4.74-.67,1.4-.8,3-1.4,4.48a9.69,9.69,0,0,1-1.94,3.13c-7.4,7.45-14.86,14.82-22.29,22.23A19.21,19.21,0,0,0,128.3,296c-3.15,7.13-6.51,14.17-9.8,21.23a14.2,14.2,0,0,1-1.12,1.67c-2.1-2.61-2.33-6.09-5.14-8.35-8.57,8-16.39,16.68-25.09,24.69l-2-1.88L110,308.38c-2.26-3-6-3.2-8.85-5.55,3.38-1.55,6.3-2.88,9.21-4.23,5.49-2.53,11-5.06,16.46-7.64a8.41,8.41,0,0,0,2.19-1.62q11.07-11,22.08-22.06c.34-.35.61-.77,1-1.29a14.83,14.83,0,0,0-1.21-1.53c-7.94-8-15.84-16-23.9-23.81a19.25,19.25,0,0,0-5.29-3.16c-6.74-3.2-13.53-6.3-20.29-9.45a9.8,9.8,0,0,1-1.21-.84c2.14-2.59,6-2.3,8-5.38L84,197.45c.94-2.72,1.57-2.91,3.4-1.08q10.63,10.57,21.22,21.2c.63.63,1.3,1.23,2.27,2.13a44.52,44.52,0,0,0,2.71-4,49.52,49.52,0,0,0,1.9-4.78,22,22,0,0,1,1.72,2.54c3.26,7,6.42,14,9.74,21A16.74,16.74,0,0,0,130,238.9c7.3,7.43,14.69,14.76,22.06,22.12.51.51,1.09,1,1.92,1.68.53-1.3.91-2.37,1.41-3.38a41.18,41.18,0,0,1,2.91-5.45c1.41-2.05,3.24-2.16,5.06-.46a8.52,8.52,0,0,1,2,2.82c1.71,4.12,3.3,8.29,4.92,12.45.69,1.78,1.31,3.59,2.07,5.34.46,1,.88,2.21,2.25,2.52,1.69-.35,2-2,2.53-3.14.89-1.86,1.41-3.88,2.15-5.81,1.46-3.8,2.9-7.6,4.47-11.35a8.75,8.75,0,0,1,1.85-2.61c2-2,3.44-2,5.12.31a26.51,26.51,0,0,1,3.11,5.64c1.77,4.46,3.29,9,5,13.51a11.77,11.77,0,0,0,1.54,2.83c.69.95,1.57.85,2.28-.05a6.64,6.64,0,0,0,1-1.7c1.58-4.27,3.05-8.59,4.7-12.85.9-2.31,2.08-4.51,3.14-6.76a2.7,2.7,0,0,1,.29-.4c2.13-2.67,5-2.5,6.54.54a70,70,0,0,1,3,6.8c1.64,4.16,3.14,8.37,4.78,12.53a26.18,26.18,0,0,0,2,3.38,17,17,0,0,0,2.1-2.91c1.61-4,3.1-8,4.63-12.06.71-1.86,1.33-3.76,2.17-5.56,1.23-2.64,2.13-3.4,4.95-4.68,2.49.94,3.83,3,4.75,5.37,1.79,4.53,3.42,9.13,5.14,13.69a31.45,31.45,0,0,0,1.58,3.67,11.6,11.6,0,0,0,1.54,1.83c2.47-1.47,2.92-3.85,3.75-5.95,1.92-4.86,3.71-9.77,5.63-14.63a7.37,7.37,0,0,1,4-4c2.74.48,4.1,2.45,5,4.74,2.06,5.24,4,10.53,6,15.78a16.25,16.25,0,0,0,1.54,3.13c.8,1.26,1.76,1.26,2.42-.07,1.11-2.21,2.06-4.51,3-6.81,1.83-4.53,3.6-9.08,5.4-13.63a2.6,2.6,0,0,1,.3-.68c2.45-3.09,4.46-3.36,6.76-.21a27.73,27.73,0,0,1,3.09,6.47c1.49,3.86,2.78,7.8,4.22,11.69a13,13,0,0,0,1.5,2.86c1,1.48,2.18,1.45,3-.14a48.43,48.43,0,0,0,2-4.54,16.41,16.41,0,0,0,.56-10.74,16.06,16.06,0,0,1-.28-5.45c.31-3,2.59-4.05,5.4-2.84,3.51,1.51,6.18,4.16,9.08,6.49s6,4.78,9,7.08a9.74,9.74,0,0,0,2.62.89,10.53,10.53,0,0,0,.26-2.33c-.48-3.18-1.05-6.34-1.59-9.51,0-.17-.14-.32-.15-.48-.24-4.21-1.62-8.31-1.18-12.61.31-3.06,2.14-4.43,5-3.16a25.1,25.1,0,0,1,5.26,3.3c3.84,3.05,7.53,6.28,11.33,9.39,1,.82,2.17,1.46,3.34,2.23a3.27,3.27,0,0,0,1.05-3.46c-.49-3.37-.9-6.74-1.41-10.1-.37-2.37-.94-4.71-1.25-7.08a15.84,15.84,0,0,1-.09-4.71c.51-3.09,2.94-4.2,5.74-2.71a29.7,29.7,0,0,1,4.61,3c2.84,2.3,5.55,4.76,8.34,7.13a24.78,24.78,0,0,0,7,4.51,11.14,11.14,0,0,0,.51-3c-.41-3.2-1-6.39-1.51-9.57,0-.17-.14-.32-.15-.48-.23-4-1.68-8-1.24-12.09.26-2.48,1.41-3.76,3.86-3.39a9.14,9.14,0,0,1,4.07,1.66c4,3.12,7.82,6.48,11.78,9.64,1.72,1.36,3.25,3.13,5.67,3.36,1.48-1,1.16-2.35.92-3.63-.82-4.38-1.77-8.74-2.55-13.13a46.39,46.39,0,0,1-.66-6.44c-.11-3,.84-4.18,3.76-5.34,3.94,1.18,6.85,4,10,6.44,2.48,1.95,4.76,4.15,7.17,6.19a13.84,13.84,0,0,0,2.69,1.79,9,9,0,0,0,2.29.48,46.69,46.69,0,0,0-.05-6.52c-.6-4.11-1.59-8.15-2.22-12.26a26,26,0,0,1-.15-6,3.4,3.4,0,0,1,5-3,21.06,21.06,0,0,1,4.88,2.94c3.89,3.13,7.65,6.42,11.48,9.61a12.45,12.45,0,0,0,2.5,1.62,11.69,11.69,0,0,0,2.45.48,29.86,29.86,0,0,0,0-4.27c-.36-2.27-1.13-4.48-1.34-6.76a10.8,10.8,0,0,1,.7-4.32c2.31-7,4.74-13.93,7.1-20.9,1.06-3.12,2.05-6.27,3.06-9.4a2.57,2.57,0,0,0,0-.81,5.84,5.84,0,0,0-4.61-1.34c-1.52.15-3,.46-5.09.78a10.58,10.58,0,0,1,.95-2.21c5.2-6.58,10.5-13.1,15.64-19.74a17.76,17.76,0,0,0,2.52-5.06c2.91-8.54,5.71-17.11,8.53-25.68.44-1.33.77-2.71,1.2-4a3.46,3.46,0,0,1,.77-1.53,2.41,2.41,0,0,1,1.69-.58c.31,0,.63.86.72,1.37A3.27,3.27,0,0,1,487.2,96c-2.35,7-4.74,13.94-7.07,20.93-1.22,3.7-2.36,7.43-3.49,11.16a7.8,7.8,0,0,0-.31,2.2c0,4.67,0,9.34.09,14,.09,3.74.38,7.48.55,11.22C477,156.4,476.9,157.3,476.84,158.8Z"/><path d="M816,402.7l-7.8-.7c-.68,3.17.65,5.73,1,8.37s1,5.19,1.52,7.77c.2,0,.41.12.51.05,2.47-1.51,2.9-1.59,4.73.76s3.19,4.85,4.79,7.28c.34.52.76,1,1.56,2,.42-2.11.74-3.6,1-5.11.39-2.12.61-4.28,1.18-6.35.65-2.41,3.19-2.92,4.82-1a53.17,53.17,0,0,1,3.22,4.73c1,1.5,1.64,3.24,3.48,4.48.48-2.27.91-4.34,1.36-6.4.33-1.52.54-3.08,1-4.56.82-2.52,3.31-2.93,4.95-.73,1.49,2,2.68,4.21,4,6.32.56.9,1.14,1.78,1.89,3a12.44,12.44,0,0,0,1.57-4.94,31.59,31.59,0,0,1,1.07-5.87c.93-3.13,3-3.69,4.95-1.08,1.67,2.27,3.13,4.7,4.69,7.05.39.58.84,1.12,1.37,1.83.42-.48.76-.69.81-.95.42-2.19.76-4.4,1.19-6.59a18.22,18.22,0,0,1,1-3.8c.95-2.16,2.75-2.45,4.28-.6s2.47,3.73,3.77,5.56c.87,1.23,1.26,2.86,3.12,3.86.43-2.15.83-4.06,1.19-6a28.74,28.74,0,0,1,.83-4.4,16.67,16.67,0,0,1,2-3.18,5.52,5.52,0,0,1,3.7,2.52c1.45,2.34,2.92,4.66,4.39,7,.25.4.57.77.88,1.18,1.65-.37,1.23-1.65,1.32-2.62.11-1.24.36-2.29,1.88-2.31,1.15,2.51.7,6-.9,7.57a2.57,2.57,0,0,1-3.91-.54c-1.59-2.12-3-4.41-4.42-6.64-.57-.86-1.11-1.74-1.67-2.61l-.62.11c-.39,1.65-.85,3.29-1.17,4.95s-.5,3.62-.84,5.41a2.92,2.92,0,0,1-2.11,2.55,2.71,2.71,0,0,1-3-1.3c-1.46-2.12-2.78-4.34-4.22-6.47-.57-.85-1.29-1.58-2.14-2.61a7.35,7.35,0,0,0-.75,1.48c-.39,2.54-.63,5.1-1.14,7.62-.34,1.69-.85,3.65-2.76,4.1-1.7.4-2.61-1.31-3.45-2.46-1.38-1.86-2.46-3.93-3.71-5.88-.46-.72-1.06-1.35-1.59-2l-.56.14c-.32,1.59-.63,3.18-1,4.76a41.51,41.51,0,0,1-1.17,5.6c-.34,1-1.27,2.29-2.14,2.47s-2.19-.74-2.81-1.55c-1.74-2.32-3.21-4.84-4.81-7.26-.3-.47-.67-.9-1-1.39-1.26.49-1.3,1.46-1.44,2.46-.33,2.45-.75,4.89-1.14,7.33a3.16,3.16,0,0,1-.25.71c-1.17,2.85-3.44,3.22-5.28.75-1.28-1.73-2.28-3.66-3.44-5.48-.71-1.11-1.46-2.19-2.35-3.51-1.26,1.75-1.23,3.59-1.59,5.3-.39,1.86-.59,3.78-1.11,5.6-.71,2.49-3,3.06-4.77,1.11a38.46,38.46,0,0,1-3.2-4.73c-.94-1.45-1.82-2.93-2.76-4.45a3.05,3.05,0,0,0-1.56,3.39c.39,3.34-1.1,5.54-3.6,7.66-9.33,7.91-18.47,16-27.71,24q-12.15,10.55-24.39,21a5.52,5.52,0,0,0-2,4.15c-.41,7.14-.54,14.32-1.47,21.39-.57,4.36.46,8.22,1.58,12.19,1.35,4.76,2.88,9.48,4.24,14.24a10.89,10.89,0,0,1,0,2.76c-2.68-.22-4.44-2.94-7.57-1.75-.22,1.66-.57,3.52-.69,5.39-.39,5.88-.7,11.77-1,17.65a2.28,2.28,0,0,1-.28,1.19,1.9,1.9,0,0,1-1.19.67c-.28,0-.64-.41-.89-.7a1.15,1.15,0,0,1-.18-.71c.17-4.16.12-8.33.6-12.45a88.58,88.58,0,0,0,.3-12.21c-2.77.15-5,1.62-7.92,1.66.43-1.3.67-2.25,1.06-3.14,2.78-6.29,5.6-12.57,8.4-18.87a4.46,4.46,0,0,0,.46-1.39q.56-7.21,1-14.42c.15-2.3.22-4.61.34-7.12-2.4.77-3.61-.52-4.32-2.45-1-2.72-1.88-5.48-2.84-8.22-.2-.58-.5-1.12-1-2.22a30,30,0,0,0-1.93,3c-.83,1.8-1.45,3.7-2.31,5.48a11.7,11.7,0,0,1-2,2.86c-1.36,1.45-2.66,1.42-3.66-.31a37.81,37.81,0,0,1-2.24-5.49c-.67-1.77-1.27-3.57-1.94-5.34a5.74,5.74,0,0,0-.82-1.09c-.82,1.75-1.5,3.21-2.17,4.68-.76,1.66-1.46,3.35-2.29,5a7.21,7.21,0,0,1-1.54,1.95c-1.27,1.18-2.73,1.1-3.49-.47-1.14-2.38-1.92-4.93-2.84-7.41-.5-1.37-1-2.76-1.51-4.31-1.85.93-2,2.59-2.62,3.83-.86,1.6-1.38,3.37-2.14,5a7.15,7.15,0,0,1-1.34,2.07c-1.61,1.7-3.65,1.39-4.61-.76-.82-1.8-1.42-3.71-2.06-5.59-.48-1.41-.84-2.85-1.3-4.27-.09-.28-.39-.49-.89-1.1a32.46,32.46,0,0,0-1.8,3c-1.09,2.32-2.07,4.69-3.12,7a3,3,0,0,1-2.64,2,2.62,2.62,0,0,1-2.67-1.88c-.93-2.55-1.77-5.14-2.69-7.7-.38-1.05-.86-2.06-1.29-3.09l-.57,0c-.5,1-1,2-1.51,3-1.11,2.33-2.21,4.66-3.28,7-.56,1.24-1.45,2.18-2.82,2.06a3.44,3.44,0,0,1-2.8-2.57c-.75-2.11-1.36-4.28-2-6.42-.37-1.17-.77-2.33-1.19-3.6-2.48.58-2,3.28-3.7,4.34-1.17,0-1.88-.7-1.41-1.86a29.19,29.19,0,0,1,2.65-5,2.07,2.07,0,0,1,3.57-.19,11,11,0,0,1,1.82,3.22c1,2.64,1.78,5.34,2.67,8a8.18,8.18,0,0,0,.74,1.19c.65-1.21,1.19-2.1,1.62-3,.89-2,1.7-4,2.58-5.94a10.19,10.19,0,0,1,1-1.74c1.66-2.38,4-2.26,5.15.41,1,2.19,1.57,4.53,2.35,6.8.45,1.3.93,2.6,1.54,4.29,1.76-2.17,2.4-4.4,3.4-6.42a36.09,36.09,0,0,1,2.25-4.43c1.36-2,3.72-1.88,4.81.3a42.64,42.64,0,0,1,2,5.58c.45,1.33.75,2.71,1.24,4,.17.47.7.81,1.36,1.53.57-1.24,1-2.18,1.46-3.13.94-2.13,1.82-4.29,2.82-6.39a6.3,6.3,0,0,1,1.48-2c1.62-1.48,3.06-1.3,3.94.72,1.09,2.5,1.85,5.15,2.78,7.73.43,1.21.91,2.41,1.37,3.61l.62.05c.78-1.59,1.58-3.17,2.31-4.79s1.33-3.23,2.1-4.79a6.76,6.76,0,0,1,1.52-1.93c1.19-1.08,2.07-1.16,3,.09a21.94,21.94,0,0,1,2.47,4.79c.82,2.07,1.38,4.24,2.07,6.35a6.18,6.18,0,0,0,.52.93c1.61-.69,1.66-2.31,2.29-3.46,1.15-2.1,2.06-4.33,3.08-6.5a2.83,2.83,0,0,1,2.84-2,2.71,2.71,0,0,1,2.44,2.17c1,2.81,1.88,5.64,2.86,8.45a25.43,25.43,0,0,0,1.32,2.64,23.09,23.09,0,0,0,1.71-3.46,8.61,8.61,0,0,1,2.91-4.25l22-19.19c1.43-1.25,2.91-2.45,4.45-3.74-.94-1.56-2-2.93-1.28-4.74.59-1.44,1.11-2.91,1.79-4.71a14.17,14.17,0,0,0-3.22-1c-2.17-.08-3.59-1.08-4.74-3.37l4-6.57c-1.39-.78-2.65-1.39-3.8-2.16-2.92-1.95-2.93-4.32-.06-6.35,1.08-.76,2.21-1.45,3.3-2.19.12-.08.17-.28.27-.46-1-1.66-2.17-3.27-3.09-5a2.62,2.62,0,0,1,1.9-4c1.85-.41,3.74-.64,5.78-1,0-1.17,0-2.22,0-3.27,0-.5-.24-1-.25-1.47-.06-3.07,2.13-4.59,5-3.48,1.43.55,2.85,1.13,4.36,1.74.54-1.72.92-3.13,1.42-4.5,1.2-3.27,2-3.63,5.36-2.36.33-1.52.72-3,1-4.52.49-3,.94-6,1.35-9.07.49-3.62-.78-7-1.32-10.56-.66-4.26-1.55-8.49-2.33-12.73-.38-2-.73-4.05-1.07-6.09a6.43,6.43,0,0,1,0-1.16c2-.32,2.39-.14,2.64,1.28.62,3.59,1.14,7.21,1.81,10.8.45,2.43,1.13,4.82,1.64,7.24a44,44,0,0,1,1.11,6.09,11,11,0,0,0,1.78,5.08q5.11,8.4,10.19,16.84A20.1,20.1,0,0,1,816,402.7Zm-30.55,1.45c-.23.37-.45.57-.46.78,0,1.24,0,2.49,0,3.74,0,3.3.72,3.76-4,4.42a26.64,26.64,0,0,0-2.7.43,4.77,4.77,0,0,0-1.16.65,4.65,4.65,0,0,0,.35,1.12c.43.61.93,1.16,1.39,1.75,2.27,2.9,2,4.47-1.09,6.44-1.08.69-2.12,1.43-3.64,2.46l4.26,2.46c2.26,1.29,2.72,3,1.37,5.18-.52.85-1.25,1.58-1.72,2.45a9,9,0,0,0-.61,2.06c2,.58,3.7,1,5.33,1.55a2.36,2.36,0,0,1,1.6,3.31c-.38,1.17-.89,2.31-1.26,3.49-.25.82-.81,1.75.65,2.67a37.7,37.7,0,0,0,3.23-2.23c2.62-2.18,5.17-4.44,7.74-6.68q6.66-5.81,13.32-11.63c.78-.68,1.47-1.36,1.24-2.53-.36-1.87-.69-3.75-1-5.62-.42-2.19-.85-4.39-1.26-6.59q-1-5.24-1.88-10.45c-3.35-1.14-5,2.33-8.13,2.73.19-1.54.41-2.79.48-4.05s.26-2.77-1.95-3.08a17.82,17.82,0,0,0-1,3.21c-.46,4-2.79,4.62-5.66,3.36C787.66,405.07,786.53,404.62,785.4,404.15Z"/><path d="M718.2,86.84c2.08-2.61,2.64-5.15,3.62-7.5a48.18,48.18,0,0,1,2.22-5c1-1.8,2.92-1.87,3.93,0,1.18,2.15,2,4.53,2.93,6.8.73,1.72,1.48,3.43,2.23,5.15l.63.07a9.11,9.11,0,0,0,1.29-2.13c.78-2.89,2.73-4.52,5.3-5.85,3.82-2,7.49-4.29,11.21-6.49a8.36,8.36,0,0,0,1.26-1.13c-.3-2-2.08-2.54-3.31-3.55.61-1.68,1.91-1.56,3.13-1.75,3-.46,6-1.28,9-1.5,7.13-.52,12.11-5.48,18.09-8.37,1.41-.68,2.71-1.6,4.08-2.36.86-.48,1-.41,2.16.7a16.35,16.35,0,0,1-1.89,1.5c-4.16,2.42-8.29,4.91-12.54,7.17-4,2.15-6.64,5.69-9.49,9-1.76,2.07-3.51,4.15-5.57,6.6-.8-2-1.43-3.57-2.21-5.53l-15.12,8.7c1.46,2.1,2.67,3.86,3.91,5.6,2.11,3,4.34,5.89,6.31,9,1.36,2.13,3.34,3.41,5.31,4.78l10,6.93c-.4,2.58-3.79,1.14-4.25,3.78.37.6.84,1.46,1.4,2.26,2,2.79,3.85,5.64,6,8.31a44.84,44.84,0,0,0,5.69,6.22c3.15,2.71,6.7,4.93,9.85,7.64,2.57,2.21,5.62,3.14,8.7,4.13,3.3,1.07,6.61,2.11,9.91,3.18.29.09.51.37,1.07.8-1,.74-1.83,1.35-2.64,2-1.25,1-1.33,1.8-.1,2.82,2.63,2.16,5.33,4.24,8,6.36,1.49,1.19,3,2.39,4.49,3.62-.73,1.44-1.62,1.14-2.48.49-1.86-1.39-3.69-2.84-5.52-4.27s-3.92-3.09-5.9-4.59a8.91,8.91,0,0,0-1.6-.73l-2.62,5.16c-2.25-3.49-4.55-6.39-6.11-9.64-2.28-4.73-6.23-7.68-10.14-10.75-2.28-1.8-4.63-3.52-7-5.24a12.12,12.12,0,0,0-1.83-1,36.67,36.67,0,0,1-1.85,3.59c-1.47,2.21-3.43,2.17-4.57-.22-1.28-2.68-2.26-5.51-3.39-8.26-.43-1.06-.91-2.09-1.42-3.26-2,1-2.17,2.82-2.82,4.32-.89,2.06-1.58,4.2-2.36,6.3a6.52,6.52,0,0,1-.54,1.13c-1.44,2.24-3.65,2.2-4.83-.22-.94-1.93-1.6-4-2.4-6l-2.2-5.43-.64,0a13.23,13.23,0,0,0-1.17,1.93c-1.06,2.6-2,5.23-3.06,7.84-.22.53-.54,1-.8,1.55-.55,1.09-1.26,2.07-2.62,2a3.06,3.06,0,0,1-2.49-2.2c-1.08-2.68-2-5.4-3.13-8.07-.42-1-1-2-1.53-3h-.63c-.57,1.24-1.22,2.44-1.71,3.71-.78,2-1.35,4.08-2.19,6-.68,1.59-1.45,3.44-3.52,3.46-1.83,0-2.27-1.78-2.84-3.11-1.25-3-2.35-6-3.53-9a13.36,13.36,0,0,0-.86-1.43,10.83,10.83,0,0,0-1.49,2c-1,2.39-1.78,4.83-2.68,7.25-.26.7-.59,1.37-.91,2-.56,1.19-1.39,2.22-2.76,2.24s-2.16-1.14-2.65-2.32c-.76-1.84-1.43-3.72-2.12-5.59a15.94,15.94,0,0,0-2.59-5.3c-1.57.87-1.75,2.39-2.28,3.62-.92,2.12-1.66,4.32-2.48,6.48a9.85,9.85,0,0,1-.63,1.36c-1.38,2.29-3.62,2.3-4.82-.09-.89-1.76-1.47-3.67-2.22-5.51s-1.64-3.91-2.5-6a4,4,0,0,0-2.34,3.35,5.94,5.94,0,0,1-3.32,4.08c-3.7,2.07-7.35,4.21-11,6.35-.7.41-1.34.92-2.34,1.62l3.44,3.67c-.86,1.28-2.25,1.52-3.62,1.73-4,.61-8,1.07-12,1.86a16.72,16.72,0,0,0-4.48,2.09q-6.74,3.78-13.41,7.68a2.23,2.23,0,0,1-3-.27c1.89-1.23,3.55-2.41,5.29-3.42,3-1.75,6.09-3.39,9.13-5.08a25.77,25.77,0,0,0,8.13-7.25c1.84-2.46,3.85-4.8,5.83-7.16a13.9,13.9,0,0,1,1.66-1.42c.65,1.93,1.23,3.66,1.88,5.57L675.35,126c1.14-.66,1.12-1.43.36-2.46-3.37-4.54-6.55-9.22-10.08-13.63-1.3-1.63-3.32-2.72-5.09-3.94-3.13-2.17-6.33-4.25-9.5-6.37.15-2.85,3.9-1.16,4.22-3.88-1.42-2-2.89-4.32-4.55-6.48-2.33-3-4.37-6.27-7.45-8.66-2.57-2-5.07-4.05-7.6-6.07a14.13,14.13,0,0,1-1.75-1.4c-2.77-3.08-6.36-4.69-10.22-5.91-3.06-1-6.09-2-9.11-3.14-.47-.17-1.06-.7-1.1-1.11s.5-.95.89-1.3c.78-.71,1.64-1.32,2.82-2.25-2.59-2.15-4.87-4.14-7.26-6a59.45,59.45,0,0,1-6.73-6c1.33-1.23,2.08-.54,2.76,0,2.51,2,5,4.17,7.47,6.23,1.59,1.3,3.23,2.55,5.15,4.07l2.72-5.44c1.27,2,2.38,3.59,3.38,5.26,1.59,2.63,3.19,5.26,4.63,8C630.66,68,633,69.55,635,71.33c3.25,2.84,6.72,5.42,10.28,8.25a16.31,16.31,0,0,0,.9-1.47A32.26,32.26,0,0,1,647.66,75c1.64-2.65,3.34-2.65,4.76.08,1.11,2.13,1.92,4.4,2.83,6.63.38.92.61,1.91,1,2.81a17.34,17.34,0,0,0,1.37,2.17c2-2.58,2.61-5.36,3.64-7.93a22.57,22.57,0,0,1,1.83-4.06c1.49-2.23,3.09-2.21,4.36.13,1.17,2.17,1.89,4.58,2.92,6.83.74,1.6.86,3.55,2.75,4.92.44-.84.88-1.5,1.17-2.23,1.09-2.77,2-5.6,3.23-8.31.58-1.3,1.19-3,3.05-2.88s2.35,1.7,2.91,3.08c1,2.45,1.89,4.94,2.86,7.39.37.92.84,1.79,1.27,2.72,1.37-.15,1.67-1.15,2-2.06.93-2.49,1.82-5,2.73-7.49a5.41,5.41,0,0,1,.25-.71c.69-1.33,1.3-2.88,3.06-2.94s2.29,1.53,2.83,2.78c1.09,2.52,2,5.12,3,7.66.39,1,.92,1.89,1.43,2.93,2-1.08,2.06-3,2.75-4.5.9-2,1.49-4,2.25-6.06a5.65,5.65,0,0,1,.72-1.32c1.43-2,3-2.14,4.25,0a58.68,58.68,0,0,1,3,6.78Zm-35.86,30.73a20.23,20.23,0,0,1,2.25,3.23c1.35,3,2.5,6.1,3.78,9.14a12.15,12.15,0,0,0,1.28,1.84c.71-1.4,1.27-2.31,1.65-3.28.76-1.93,1.34-3.94,2.14-5.85s1.41-4,3.94-5a14.72,14.72,0,0,1,2.38,2.88c1.07,2.24,1.76,4.66,2.76,6.93.6,1.35.57,3.14,2.38,4a7,7,0,0,0,.87-1.26c1.23-3.08,2.41-6.18,3.61-9.28a5.17,5.17,0,0,1,3-3.12,5.79,5.79,0,0,1,3.1,3.51c.88,2.15,1.59,4.36,2.44,6.51.51,1.27,1.16,2.47,1.89,4a7.67,7.67,0,0,0,1-1.33c1-2.53,2-5.06,3-7.61.76-2,1.42-4.09,3.8-5.06a7.63,7.63,0,0,1,3.28,4.18c1,2.62,2,5.26,3,7.86a14.74,14.74,0,0,0,1.27,2c.69-1.34,1.25-2.24,1.64-3.21,1-2.52,2.06-5,3-7.63a5.38,5.38,0,0,1,3.32-3.27,15.77,15.77,0,0,1,2.34,3c1.31,3,2.35,6,3.57,9a11.57,11.57,0,0,0,1.42,2,10.36,10.36,0,0,0,.88-1.42c.92-2.41,1.74-4.85,2.73-7.23.88-2.07,1.37-4.51,4.28-5.44a12.94,12.94,0,0,1,2.13,2.57c1.08,2.32,1.94,4.75,2.86,7.14a9.5,9.5,0,0,0,2.52,4.35c.91-2,1.69-3.79,2.43-5.45l-9.66-13.55c-2.65-.17-2.51,3-4.74,3.24a4.75,4.75,0,0,1-.6-1.06c-1-3.59-2.06-7.16-2.83-10.79a19.34,19.34,0,0,0-3.67-8.28c-2-2.52-3.62-5.35-5.48-8-1-1.51-2.23-2.93-3.45-4.52a43,43,0,0,1-2.18,4.06c-1.22,1.78-2.77,1.7-4-.07a4.57,4.57,0,0,1-.43-.89c-1.26-3.06-2.49-6.12-3.78-9.16a23,23,0,0,0-1.4-2.37c-.74,1.37-1.29,2.2-1.66,3.09-1,2.44-2,4.9-2.86,7.38-.57,1.56-1.33,3.1-3.07,3.21s-2.37-1.68-2.94-3c-.88-2-1.39-4.24-2.29-6.27-.61-1.35-.79-3.07-2.67-4-.45.86-.93,1.62-1.26,2.43-1.19,2.91-2.28,5.86-3.53,8.75-.45,1-1.13,2.17-2.51,2.14s-2.07-1.22-2.71-2.3a6.18,6.18,0,0,1-.41-.91c-.64-1.88-1.17-3.81-2-5.64-.62-1.47-.91-3.22-2.79-4.33A22.43,22.43,0,0,0,694,78c-1,2.63-1.85,5.35-3,7.9a5.07,5.07,0,0,1-2.7,2.62c-1.52.43-2.2-1.18-2.72-2.39-1.22-2.82-2.34-5.68-3.53-8.5-.3-.73-.74-1.39-1.36-2.52A14.32,14.32,0,0,0,679,77.37c-1.06,2.59-2.1,5.2-3,7.85-.54,1.6-1.3,3.15-3,3.31-1.89.17-2.48-1.71-3.1-3.12-.81-1.8-1.37-3.71-2.12-5.54-.64-1.57-1.4-3.08-2.11-4.62H665c-.41.76-.89,1.48-1.22,2.27-1.23,2.89-2.4,5.81-3.61,8.71-.49,1.18-1.1,2.64-2.52,2.3-1-.25-1.83-1.48-2.71-2.31-.16-.15-.19-.45-.27-.69a54,54,0,0,0-2-5.59c-.72-1.49-.81-3.43-2.5-4.31-1.8.46-1.52,2.13-2.15,3.22-.87,1.51-.47,2.82.53,4.15,2.53,3.39,5,6.84,7.51,10.24A14.34,14.34,0,0,0,657.86,95l3.42-4.1a12.28,12.28,0,0,1,1.31,2.31c.81,2.69,1.41,5.45,2.26,8.13s1.19,5.66,3,8.09c2.88,3.85,5.6,7.83,8.42,11.72a15,15,0,0,0,1.68,1.71C679.21,120.87,679.65,118.65,682.34,117.57Z"/><path d="M170.59,110.19a7.52,7.52,0,0,0,.16,1.82c.87,2.68,1.84,5.33,2.77,8a5.88,5.88,0,0,1,.23.71c.33,1.74.15,3.53-1.29,4.55a3.74,3.74,0,0,1-4.25-.28c-1.85-1.26-3.62-2.63-5.41-4-.77-.58-1.51-1.19-2.75-2.18l-.18,3.72c-.14,3,.27,6-.82,8.9-.75,2-.6,2.07-2.73,3.42-4.46-2-5.88-6.74-9-10.18-1.22,1.05-1.41,2.44-1.74,3.76-.59,2.33-1.14,4.67-1.72,7a3.53,3.53,0,0,1-.4,1.17c-1.61,2.32-3.09,3.61-5.24.36a69.28,69.28,0,0,1-3.44-6.63c-.6-1.15-1.23-2.28-1.84-3.43l-.6,0c-.63,1.48-1.29,2.94-1.88,4.44-.7,1.76-1.33,3.56-2,5.33a8.24,8.24,0,0,1-.7,1.31c-1.67,2.69-3.84,2.66-5.19-.23-1.22-2.61-2.11-5.38-3.19-8.06a24.31,24.31,0,0,0-1.15-2.18c-1.89.77-1.7,2.58-2.75,3.94l23.79,32.58c1.67-2.06,3.09-3.81,4.85-6,.63,1.92,1.14,3.29,1.52,4.69,1.33,4.78,2.59,9.57,3.92,14.34a8.77,8.77,0,0,0,1.21,2.72c2.58,3.67,5.23,7.29,7.88,10.91L168,203.39c.54.73,1.11,1.44,1.63,2.19.83,1.21,1.63,2.44,2.41,3.62-1.06,1.21-1.83.87-2.48.06-.93-1.17-1.8-2.39-2.69-3.59-3.13-4.2-6.27-8.38-9.36-12.6-2.85-3.88-5.52-7.91-8.53-11.65a21.63,21.63,0,0,0-4.84-3.8c-4.18-2.86-8.41-5.64-12.62-8.47a5.54,5.54,0,0,1-.67-.89l6.32-2.82c-1.42-2.08-2.57-3.87-3.82-5.59-2.89-3.95-5.83-7.87-8.74-11.82q-3.55-4.82-7.08-9.65c-.88-1.2-1.73-2.43-2.57-3.66-2.07-3-5.44-4.32-8.41-6.08-7-4.15-14.08-8.15-21.13-12.21a18.48,18.48,0,0,0-6.8-2.27c-4.42-.62-8.79-1.59-13.19-2.4-1.11-.2-2.22-.37-4-.66l5.27-5.25c-1-.68-1.74-1.2-2.49-1.63L35.27,87.55a4.23,4.23,0,0,1-1.43-1,1.88,1.88,0,0,1-.16-1.54c.09-.25.88-.42,1.28-.32a5.78,5.78,0,0,1,1.53.81Q49.86,93.29,63.23,101c1.41.81,2.93,1.45,4.29,2.11,2.06-1.77,1.47-4.17,2.17-6.32,1.8.63,2.68,2.06,3.71,3.28,3.23,3.8,6.42,7.64,9.66,11.43a9.37,9.37,0,0,0,2.22,2c7.63,4.51,15.29,9,23,13.46.25-.34.48-.51.51-.72.51-3,1.68-4,4.81-4.17,2.4-.14,4.8-.37,7.19-.61a9.73,9.73,0,0,0,1.77-.63c-1.1-1.52-2-2.83-3-4.12-1.28-1.73-2.61-3.43-3.87-5.17a3.5,3.5,0,0,1-.61-3.76c.71-1.41,2-1.79,3.58-1.75,2.42.07,4.84,0,7.25.06h3c-.94-1.77-1.67-3.1-2.36-4.45-1.21-2.35-2.5-4.67-3.55-7.1-.93-2.17,0-3.41,2.41-3.61a19.8,19.8,0,0,1,8.26,1.47A22.14,22.14,0,0,0,136,93a4.7,4.7,0,0,0-.07-3.64c-1-3-2.44-6-2.23-9.38.18-3,1.48-4,4.21-2.62,2.37,1.16,4.55,2.69,6.81,4.07.55.33,1.07.68,1.79,1.14a8.88,8.88,0,0,0,.4-1.32c.33-3.31.68-6.62.92-9.94a4.68,4.68,0,0,1,1.8-3.14,1.94,1.94,0,0,1,2.73-.21,9.56,9.56,0,0,1,2.47,2.73c1.19,2.26,2.11,4.67,3.16,7,.23.51.57,1,1.06,1.78.87-1.31,1.5-2.44,2.31-3.43,1.53-1.86,3.11-3.68,4.79-5.4a8.7,8.7,0,0,1,2.17-1.28c2.3.7,3,2.15,3.07,4.23.17,3.15-.87,6-1.5,9-.16.78-.36,1.55-.67,2.82,2.33-.53,4.21-1,6.11-1.39a17.52,17.52,0,0,1,4.18-.47c3,.19,4.29,2.3,3.11,5a12,12,0,0,1-2.53,3.59c-1.85,1.78-3.9,3.35-5.94,5.07,1,1.77,2.86,2.18,4.17,3.24a43.71,43.71,0,0,1,4.47,3.89,3.75,3.75,0,0,1-3,6.23C176.93,110.51,174.05,110.34,170.59,110.19ZM135.56,79a14.65,14.65,0,0,0,.14,2.15c.6,2.08,1.26,4.14,1.87,6.21a31.3,31.3,0,0,1,1.31,5,2.68,2.68,0,0,1-3.6,2.85c-2.7-.75-5.38-1.61-8.09-2.33a2.21,2.21,0,0,0-1.79.22,2,2,0,0,0,0,1.73c1.11,2.23,2.4,4.37,3.51,6.6a15.82,15.82,0,0,1,1.61,4.11c.37,2-.54,3-2.59,3-2.33.05-4.66,0-7,0-1.14,0-2.27.13-3.35.2-.46,1.49.28,2.31.92,3.18,1.88,2.53,3.82,5,5.61,7.63a2.1,2.1,0,0,1-.69,3.37,5.66,5.66,0,0,1-2.32.75c-2.88.37-5.78.64-8.67,1a4.58,4.58,0,0,0-1.31.68,4.93,4.93,0,0,0,3,3.56,34.15,34.15,0,0,1,1.85-3.05,2.3,2.3,0,0,1,4.05.3c1.09,2.22,1.86,4.59,2.93,6.82.71,1.48.55,3.49,2.66,4.5.46-1,.93-1.83,1.29-2.73,1-2.55,1.94-5.11,2.94-7.66a4.55,4.55,0,0,1,3-3c4.28,2.93,4.35,8.72,8,12.53a23.5,23.5,0,0,0,1.28-3.12c.52-2,.83-4,1.32-6.06a18.12,18.12,0,0,1,1.28-3.76c.93-1.86,2.29-2.08,3.77-.65a34,34,0,0,1,2.52,3.07c1.65,2,2.71,4.55,4.89,6.06a2.54,2.54,0,0,0,1.34-2.67c0-2.5,0-5,0-7.5a8.54,8.54,0,0,1,.63-2.87c1.21-2.89,2-3.07,4.57-1.08,1.63,1.29,3.21,2.64,4.89,3.87a4.87,4.87,0,0,0,4,1.22,25.93,25.93,0,0,0-.53-3.88c-.78-2.63-1.75-5.19-2.62-7.79-.81-2.41-.1-3.47,2.5-3.44,2.15,0,4.31.23,6.46.4,1.61.13,3.11,0,4.3-1.32a5.62,5.62,0,0,0-2.62-3.84c-1.61-1-3.2-2.1-4.9-3-3.16-1.61-3.58-3.22-.44-5.71.2-.15.41-.29.6-.45,1.76-1.52,3.55-3,5.25-4.59.84-.78,1.66-1.7,1-3.27a13.46,13.46,0,0,0-6.27.15,29,29,0,0,1-4.3,1.21c-2.43.33-3.39-1.24-2.78-3.6.87-3.34,1.5-6.76,2.08-10.17.11-.64-.45-1.41-.89-2.66-1.52,1.64-2.73,2.77-3.72,4.06-1.41,1.84-2.6,3.87-4,5.71-1.2,1.56-2.52,1.46-3.63-.15a7.81,7.81,0,0,1-.6-1.35c-1.2-2.64-2.34-5.31-3.62-7.91a9.61,9.61,0,0,0-1.88-1.94,17.83,17.83,0,0,0-1.48,7.71,40.24,40.24,0,0,1,0,5.49,2.23,2.23,0,0,1-3.19,2,7.38,7.38,0,0,1-1.51-.87c-2-1.33-4-2.73-6-4A16.15,16.15,0,0,0,135.56,79Z"/><path d="M291.35,426.44c.12.26.2.49.31.69,1.09,2,.52,3.27-1.61,3.47s-4.49.27-6.72.45c-1.48.12-2.95.32-5,.55a32.25,32.25,0,0,0,5.19,5.06,23.16,23.16,0,0,1,3.38,2.93c1.46,1.67,1.1,3-.92,3.9a8,8,0,0,1-2.65.53c-2.08.07-4.17,0-6.25,0-.81,0-1.62.1-3,.19.52.93.7,1.68,1.18,2,3.55,2.71,5.81,6.58,8.81,9.78,1.36,1.44,2.62,3,3.9,4.44,2-.56,2.25-2.61,3.88-3.78.85,2.15,1.67,4.18,2.45,6.21a41.86,41.86,0,0,1,1.43,4c1.33,4.75,4.58,8.2,7.71,11.76,1.81,2.06,3.58,4.17,5.26,6.33a5.64,5.64,0,0,1,.58,2l-.65.38c-.73-.7-1.52-1.35-2.18-2.12-2.84-3.36-5.71-6.72-8.44-10.17-2.11-2.66-5.17-3.85-7.93-5.5-2.53-1.51-5.11-2.95-8.07-4.65l4.35-2.33a5,5,0,0,0-.49-1.54c-2.75-3.23-5.54-6.43-8.32-9.63-1.22-1.41-2.74-.87-4.18-.61-3,.54-6,1.16-9,1.71a27.52,27.52,0,0,0-11,4.25c-1.7,1.19-3.5,2.24-5.28,3.29-.91.54-1.89.95-3.35,1.67.22-2,.38-3.54.53-5-.49-.26-.73-.5-.92-.46-2.34.44-4.67.93-7,1.4s-4.52.95-6.8,1.31a6,6,0,0,1-1.94-.37l-.06-.64a11.36,11.36,0,0,1,2.58-1.25c2.42-.51,4.89-.78,7.33-1.23,1.86-.35,3.69-.82,5.48-1.22,1.23-2-1.38-2.94-1-4.86a5.19,5.19,0,0,1,1.51-.21c3.42.54,6.83,1.15,10.24,1.76.73.13,1.43.41,2.16.55a6,6,0,0,0,2.2.27c2.27-.41,4.51-1,6.77-1.46,2.51-.5,5-.91,7.56-1.37l1.61-.3a27.33,27.33,0,0,1-2.14-2.58,3.49,3.49,0,0,1-.75-2.17c.21-1.07,1.24-1.45,2.33-1.49,2.75-.11,5.49-.2,8.23-.37a24.56,24.56,0,0,0,2.8-.51l.22-.62c-1.25-1.15-2.48-2.33-3.76-3.44s-2.55-2.14-3.83-3.2a2.76,2.76,0,0,1,1.71-5.14c2.41-.14,4.83-.06,7.25-.11.87,0,1.74-.12,3-.22a11.12,11.12,0,0,0-4.44-4.69A22.18,22.18,0,0,1,275.69,409a54.59,54.59,0,0,0-4.15-12.66c-.7-1.51-1.26-3.07-1.84-4.63a17.79,17.79,0,0,1-.45-2.11l5.88.53c2.39-3.29,1-6.91,2.23-10.22a5,5,0,0,0-1.45-.29c-2.43.48-4.83,1-7.26,1.53a59.14,59.14,0,0,1-5.87,1,15.07,15.07,0,0,0-6.41,2.54c-2.55,1.57-5.09,3.15-7.66,4.67a20.68,20.68,0,0,1-2.6,1.08v-5.29l-7.68,1.56c-2.19.44-4.37.9-6.57,1.25a10.74,10.74,0,0,1-2.52-.33,6.92,6.92,0,0,1,4.17-2.16c3.88-.64,7.74-1.38,11.39-2,1.21-2.15-1.24-3.23-.8-5.08a4.18,4.18,0,0,1,1.12-.1c4.49.75,8.94,1.8,13.46,2.2,2.66.23,5.42-.52,8.12-.93,3.5-.54,7-1.18,10.48-1.76,1.46-.24,1.93.62,2,1.88s.2,2.39.35,4.25a19.07,19.07,0,0,0,2.6-1.93c1.38-1.55,2.62-3.23,4-4.77a11.79,11.79,0,0,1,2.43-2.09c1.32-.84,2.28-.54,2.69.92a29.43,29.43,0,0,1,.94,5.09c.17,1.74,0,3.5.08,5.25a20.34,20.34,0,0,0,.3,2.05c1.81-.71,2.56-2.13,3.55-3.29,1.41-1.64,2.81-3.28,4.28-4.85.72-.78,1.54-1.77,2.77-1.1a3.09,3.09,0,0,1,1.53,2.95c0,2.08,0,4.16,0,6.24,0,1.48-.1,3,1,4.46,2.05-1.45,3.39-3.44,4.94-5.23a29.63,29.63,0,0,1,3-3.3c1.45-1.24,2.54-1,3.37.7a7.42,7.42,0,0,1,.7,2.84c.11,2.16,0,4.33.06,6.49,0,.8.09,1.61.15,2.53,2.77-.1,3-3.29,5.74-3.69l10.79,12.43c.73-1.16,1.22-2.07,1.83-2.9.31-.41.86-.94,1.25-.91s.93.63,1.1,1.1c1.39,3.72,2.66,7.49,4.07,11.21a11.63,11.63,0,0,0,1.79,3.26c2.33,2.82,4.8,5.53,7.18,8.31,1.39,1.63,2.72,3.32,4.09,5-.94,1.16-1.71.87-2.38.08-2.3-2.73-4.51-5.55-6.88-8.22s-4.54-5.5-7.91-7.1c-2.7-1.28-5.27-2.82-7.85-4.32a18.56,18.56,0,0,1-2.39-2l3.89-2.08c-1.11-2.89-6.75-9.44-9-10.53-2,3.27-4,6.59-6.12,9.86-1.75,2.73-3.77,5.29-5.31,8.13a67.25,67.25,0,0,0-3.44,8.2c-.74,1.94-1.25,4-2,5.91a11.7,11.7,0,0,1-1.31,2c-1.48-1.69-2.7-3.12-4-4.52a3.52,3.52,0,0,0-3.42-1.08C295.73,425.54,293.64,426,291.35,426.44Zm-10.26-37a20.55,20.55,0,0,1-.47,2.95c-.91,2.85-2,5.66-2.87,8.51-.46,1.47-1.14,3-1,4.5a26.63,26.63,0,0,0,1.68,6.46c2.32,6.27,6.06,11,13.25,12a5.69,5.69,0,0,0,4.05-.78c2.88-1.81,5.8-3.55,8.68-5.37,1.82-1.15,4-2,5.27-3.67,3.39-4.49,6.35-9.3,9.7-14.32-2.6-.42-3-1.94-3.06-3.89,0-2.65-.29-5.31-.49-8a15.24,15.24,0,0,0-.4-2l-.6-.16-3.59,4c-1.21,1.36-2.34,2.82-3.67,4.06-1.49,1.4-3.22,1-4-.93a6.25,6.25,0,0,1-.33-2.2c0-2.34,0-4.67,0-7,0-.78-.16-1.55-.29-2.71a9.72,9.72,0,0,0-1.76,1.1c-1.34,1.48-2.59,3-3.91,4.54a19.69,19.69,0,0,1-2.76,2.86,3.65,3.65,0,0,1-2.51.52c-1.06-.18-1.14-1.26-1.19-2.21-.14-2.58-.27-5.15-.5-7.72-.1-1.11-.43-2.19-.76-3.81-1.12,1.16-1.88,1.88-2.57,2.67-1.48,1.69-2.86,3.46-4.4,5.1-1.06,1.13-2.22,2.26-4,1.93v3.27Z"/><path d="M368.88,589.43l-3.26-1.17c-.34-1.51.78-2,1.61-2.61,2-1.44,4.12-2.81,6.21-4.18a15.24,15.24,0,0,0,4.68-4.74c1.72-2.74,3.69-5.33,5.63-7.92a4,4,0,0,0,.41-4.62c-2.82-5.91-5.51-11.89-8.26-17.83-2.29-5-4.68-9.88-6.85-14.9-1-2.39-2.47-3.48-5.14-3.34a29.28,29.28,0,0,1-8.42-.71c-1.75-.41-3.77.06-5.61.43-3.31.66-6.58,1.56-9.87,2.33a7.11,7.11,0,0,1-1.41,0c.28-1.3.51-2.43.81-3.89-2.4-.28-4.52-.55-6.65-.76-1.65-.16-3.32-.25-5-.4-.9-.08-1.62-.38-1.51-1.82,2.31-.61,4.48.76,6.74.62s4.6.31,7.17-.15c-.3-1.18-.54-2.11-.78-3.07.67-.89,1.38-.56,2.18-.18,3,1.43,6,2.8,9,4.19.53.25,1.07.69,1.6.68,5-.12,9.83,1.82,14.86,1a2.47,2.47,0,0,0,.5-.26c0-.72.08-1.6.15-2.49.15-1.74,1.24-2.43,2.71-1.52a28.13,28.13,0,0,1,3.67,3c1.21,1.07,2.35,2.22,3.53,3.33l.5-.25c0-1.61,0-3.23,0-4.84,0-1.25-.16-2.49-.21-3.73a2.75,2.75,0,0,1,1.94-3c3.8,1.06,5.43,5.13,8.92,7a6.08,6.08,0,0,0,.25-4.35c-.26-1.38-.48-2.78-.63-4.18a3.36,3.36,0,0,1,2.07-3.62c3.56,1.47,5.32,5.45,9,7.36a10.16,10.16,0,0,0,0-6.09c-.79-2.13-.27-3.88,1-6a8.13,8.13,0,0,1,2.36.89c1.56,1.23,3,2.64,4.46,4,.79.7,1.59,1.39,2.81,2.45.49-4.19-.08-7.9.3-11.5a2.38,2.38,0,0,1,3.44.32q2.15,2.08,4.33,4.14c.58.54,1.23,1,2.24,1.86.88-4-.19-7.71.63-11.2,1.87-1.16,3.09,0,4.25,1.05s2.07,2.17,3.15,3.21c.7.67,1.5,1.25,2.68,2.22a8.06,8.06,0,0,0,.47-2.6,5,5,0,0,1,1-4.21c1.83-2.57,3.7-5.12,5.51-7.7a23,23,0,0,0,1.32-2.51l-3.88-1.47a33.06,33.06,0,0,1,2.71-2.51,46.7,46.7,0,0,1,5-3.29c3-1.62,4.82-4.24,6.65-6.93s3.64-5.14,5.44-7.73c.28-.41.46-.9.7-1.34,1.57,1.09,1.16,1.81.59,2.62-2.2,3.11-4.24,6.37-6.62,9.34-1.8,2.26-2.31,4.91-3.13,7.49a63.52,63.52,0,0,1-2.8,8L441.9,488c-3.47,4.09-5.84,7.81-8.44,11.51,5.74,12.46,11.47,24.87,17.31,37.54,2.13.33,4.31.8,6.52,1s4.3,0,6.7,0v-3.81a17,17,0,0,1,2.45.67c3.33,1.48,6.63,3,9.94,4.54a4.59,4.59,0,0,0,1.4.49c4.13.37,8.26.69,12.4,1.05.84.08,1.68.25,2.52.38l.06.71a4.85,4.85,0,0,1-1.61.51c-3.31-.21-6.64-.34-9.92-.83-3.65-.54-7.08.19-10.53,1.17-2.28.64-4.6,1.14-7.48,1.85.34-1.66.56-2.71.8-3.84-3.91-1.85-8.06-1.27-12.35-1.31-.13.9-.2,1.63-.34,2.33-.47,2.47-2.17,3.17-4.15,1.58-1.36-1.09-2.52-2.42-3.77-3.64-.76-.74-1.54-1.47-2.58-2.46a8.33,8.33,0,0,0-.5,1.89c.06,2.16.2,4.31.32,6.47,0,.33.19.73.06,1-.43.86-.78,2-1.5,2.38-.54.29-1.76-.21-2.41-.72-1.43-1.12-2.69-2.47-4-3.72-.72-.67-1.45-1.33-2.53-2.31a14.36,14.36,0,0,0-.42,2.16c0,2.41,0,4.83,0,7.24,0,1.26-.28,2.33-1.78,2.72-3.56-1.35-5.31-5.07-8.86-7.2-.05,1.09-.15,1.88-.12,2.66.07,2.24.18,4.48.29,6.72a2.61,2.61,0,0,1-2,2.77c-3.35-1.5-5.17-5.1-8.32-7.1-1.44.94-1,2.15-.8,3.39a38,38,0,0,1,.55,5.91,3.33,3.33,0,0,1-1.28,2.21c-.82.64-1.73.1-2.44-.57-1.51-1.43-3-2.89-4.55-4.27a26.4,26.4,0,0,0-2.5-1.75,10.68,10.68,0,0,0-.12,6.22,8.45,8.45,0,0,1,.19,3.42c-.47,2.19-1.85,2.65-3.66,1.35a22.24,22.24,0,0,1-2.2-2c-1.08-1-2.15-2.08-3.24-3.1-.3-.28-.65-.5-1.28-1a8.73,8.73,0,0,0-.37,2,7,7,0,0,1-1.64,5.06c-2.07,2.59-3.75,5.48-5.79,8.09-2.28,2.93-3.22,6.33-4,9.81-.35,1.53-.69,3.06-1.17,4.55a11.33,11.33,0,0,1-1.28,2l-2.8-3.07c-1.51,2.14-2.82,4.14-4.28,6s-2.14,4.08-4.75,4.62C363.18,597,366.58,593.82,368.88,589.43ZM412.4,504l-.57.2v2.22c0,2.41.06,4.83,0,7.24-.09,2.24-1.2,2.81-3.11,1.6A18.38,18.38,0,0,1,406,513c-1.42-1.35-2.8-2.75-4.2-4.13l-.56.2c0,.77-.12,1.55-.1,2.32,0,2.16.12,4.32.17,6.49a3.78,3.78,0,0,1,0,.75c-.32,1.87-1.77,2.61-3.23,1.42-1.86-1.52-3.51-3.29-5.27-4.94-.7-.65-1.31-1.65-2.87-.6.14,1,.32,2.2.44,3.39a45.32,45.32,0,0,1,.44,5.44c0,1.7-1.39,2.48-3,1.85a7,7,0,0,1-2-1.4c-1.46-1.37-2.83-2.83-4.29-4.2a9.9,9.9,0,0,0-1.72-1,10.75,10.75,0,0,0,0,5.5,17.75,17.75,0,0,1,.5,3.42A2.29,2.29,0,0,1,379,530a2.57,2.57,0,0,1-3-.67c-1.29-1.3-2.58-2.61-3.92-3.85-.76-.69-1.62-1.27-2.52-2-.79,2.27-.61,3.95.57,6.5q5.65,12.19,11.31,24.37c1.11,2.38,2.29,4.72,3.46,7.15l2.14-1.36c3.86,1.15,5.6,4.93,9.24,7.07-.08-1.71-.14-2.85-.19-4a52.26,52.26,0,0,1-.14-5.73c.17-2.38,1.73-3,3.56-1.49,1.59,1.34,3,2.92,4.47,4.35.81.78,1.52,1.82,3.26,1.42-.11-1-.22-2.08-.32-3.11a40.63,40.63,0,0,1-.45-5.69c.13-2.44,1.89-3.18,3.77-1.67,1.68,1.35,3.2,2.9,4.83,4.33.63.56,1.36,1,2.27,1.7a9.41,9.41,0,0,0,.07-6,5.73,5.73,0,0,1,1.08-5.81c4.29.56,5.72,5.25,9.44,6.85a4.74,4.74,0,0,0,.27-1.07c-.05-2.32-.1-4.65-.22-7-.06-1.28-.17-2.62,1.1-3.31s2.21.23,3.07,1c1.38,1.33,2.75,2.67,4.14,4,.57.54,1.18,1,2.28,2,.09-1.53.18-2.4.18-3.27,0-2.33-.1-4.67,0-7,.07-1.79,1.05-2.33,2.69-1.57a8.42,8.42,0,0,1,2.05,1.39c1.28,1.19,2.47,2.48,3.73,3.68a24.14,24.14,0,0,0,2.1,1.55,9.72,9.72,0,0,0,.23-2.6,33.24,33.24,0,0,0-1.69-5.2c-2.52-5.6-5.14-11.15-7.74-16.7q-3.15-6.76-6.37-13.5c0-.1-.26-.13-.45-.22L431.77,506c-2.18-.34-3.3-2-4.73-3.22s-2.28-3.08-4.36-3.48a2.77,2.77,0,0,0-.31.8c0,1.74,0,3.49,0,5.24a26.53,26.53,0,0,1-.09,4c-.25,1.71-1.2,2.08-2.6,1.05s-2.72-2.18-4-3.33C414.51,506.07,413.47,505,412.4,504Z"/><path d="M739.62,300.46c-.32-1.59,2-2.52.63-4.64a25.16,25.16,0,0,0-3.41-.6,40.25,40.25,0,0,1-8.16-.81c-3.54-.92-6.83.3-10,2-2.71,1.42-5.59,2.53-8.28,4a25.85,25.85,0,0,0-5.07,3.53c-2.71,2.47-5.19,5.18-7.81,7.74a25.06,25.06,0,0,1-2.72,1.94c-.28-1.93-.48-3.26-.73-4.95a10.45,10.45,0,0,0-2.3.43c-3,1.32-6.08,2.71-9.09,4.12a4,4,0,0,0-1.57,1.14c-2.12,3-4.18,6-6.24,9a50.24,50.24,0,0,0-3.94,6.06,38.31,38.31,0,0,0-2.45,7c-.87,3.26-1.52,6.58-2.27,9.92-2.39.35-2.24-2.67-4.38-2.84a6.55,6.55,0,0,0-1,1c-2.48,3.64-4.9,7.33-7.41,10.95a11.06,11.06,0,0,1-1.76,1.66c-1.14-1-.55-1.58-.14-2.2q3.3-5,6.57-10c.63-1,1.24-1.95,1.82-2.87-.65-1.28-1.78-1.18-2.84-1.38-.56-.11-1.39-.56-1.46-1s.42-1.2.88-1.55a76.55,76.55,0,0,1,7.09-5.1c3.86-2.28,6.46-5.63,8.76-9.32a43.1,43.1,0,0,0,2.4-3.79,4.57,4.57,0,0,0,.5-2.82c-.57-2.41-1.43-4.74-2.33-7.57a12,12,0,0,0-1.47,1.75c-.91,1.68-1.63,3.46-2.62,5.09-.42.69-1.38,1.53-2,1.48s-1.53-1-1.83-1.75c-.73-1.84-1.18-3.79-1.77-5.69-.17-.52-.43-1-.69-1.6-1.73.66-1.72,2.33-2.46,3.44s-1.29,2.5-2.06,3.67c-1,1.54-2.21,1.6-3,0a54.6,54.6,0,0,1-2.19-6.06c-.23-.65-.44-1.31-.71-2.1-1.83.9-1.92,2.56-2.63,3.79a37.69,37.69,0,0,1-2.28,3.84c-.89,1.18-2.18,1.06-2.74-.32-.86-2.12-1.43-4.37-2.13-6.56-.17-.52-.38-1-.62-1.64-1.79.71-2,2.35-2.69,3.59a40,40,0,0,1-2,3.72c-1.09,1.53-2.45,1.38-3.18-.38-.82-2-1.33-4.06-2-6.09-.19-.58-.5-1.12-1-2.19-.67,1.17-1.07,1.84-1.45,2.53-.92,1.68-1.71,3.44-2.77,5s-2.47,1.57-3.31-.35-1.31-3.9-2-5.84c-.2-.59-.45-1.17-.69-1.79l-3.57,2.25a8.08,8.08,0,0,1,3.26-5.1c3.44,2.15,2.62,6.39,4.49,9.28,1.55-.58,1.68-2,2.28-3a35.29,35.29,0,0,1,2.49-4.27c1.14-1.44,2-1.34,2.79.3s1.32,3.71,2,5.56c.28.8.61,1.59.91,2.38l.61,0c.41-.77.8-1.55,1.24-2.3a44.86,44.86,0,0,1,3.08-5.08c1-1.32,1.94-1.19,2.64.31.83,1.77,1.34,3.7,2,5.55.3.82.62,1.63.94,2.44l.63.08c.79-1.59,1.53-3.21,2.38-4.77a13.23,13.23,0,0,1,2-2.83c1-1.07,1.91-1,2.52.38.79,1.73,1.32,3.58,2,5.37.32.92.61,1.84,1,3,1.85-1.29,2.17-3.18,3-4.7a9.89,9.89,0,0,1,1-2c.64-.69,1.68-1.75,2.23-1.58a4.15,4.15,0,0,1,2,2.22,23.37,23.37,0,0,1,1,3.58c.33,1.09.73,2.16,1.09,3.24l.56.13,1.69-3.06a37.3,37.3,0,0,1,2.41-4.34c1.11-1.53,2.48-1.35,3.24.41.65,1.51,1,3.15,1.47,4.73.28.88.65,1.74,1,2.68.55-.28.89-.34,1-.51,1-2.67,3.34-3.76,5.74-4.8,3-1.29,5.87-2.69,9.14-4.2-.53-.92-.89-1.69-1.38-2.37s-1.07-1.21-2-2.23a25.41,25.41,0,0,1,2.89-.62c4.39-.37,8.79-.67,13.18-1.05a6.53,6.53,0,0,0,2.14-.64c4.5-2.09,9-4.22,13.49-6.34.14-.06.22-.24.5-.53L720,288.94c1.09-1.92,2.18-2.28,4.32-1.58,1.72.56,3.46,1.06,5.21,1.55a4.83,4.83,0,0,0,1.32-.14c-.49-1-.82-1.77-1.27-2.49-.79-1.27-1.72-2.45-2.49-3.74-.6-1-1.12-2.18-.35-3.29s2.15-.81,3.23-.58c1.61.33,3.15.95,4.74,1.41.59.17,1.21.24,2.16.42-.94-3.8-4.92-5.91-4.38-10.05,3.62-1.27,6.65.9,10,1.43.57-1.41-.41-2.23-1-3.17a45.41,45.41,0,0,1-2.8-4.67c-.71-1.57-.12-2.42,1.56-2.49a12.27,12.27,0,0,1,3.18.4c1.67.37,3.31.87,5.1,1.35.37-1.89-1-2.87-1.63-4.11-.52-1-1.42-1.88-1.9-2.92a11.07,11.07,0,0,1-.51-2.66c2.87-1,3.2-.91,10.1,1,.67-1.25-.41-2-.88-2.84-.81-1.45-1.85-2.76-2.66-4.21a12.51,12.51,0,0,1-.78-2.47c3.75-1.86,6.86.93,10.44.54-.29-1.24-.58-2.45-.93-3.95,1.75.77,3.42,3.09,3.37,4.33a1.52,1.52,0,0,1-1.8,1.62c-2-.26-4.07-.71-6.09-1.1-.77-.15-1.52-.35-2.28-.52l-.4.5,4.7,7.85c-1.27,2.11-1.9,2.43-3.91,1.91-1.69-.44-3.34-1-5-1.46a9.75,9.75,0,0,0-1.84-.12c.63,2.2,2.07,3.63,3.09,5.29.85,1.41,1.94,2.78.81,4.72-3.39,1-6.41-1.36-10.32-1.62.84,1.44,1.38,2.39,2,3.32.79,1.27,1.68,2.48,2.4,3.78,1.31,2.34.63,3.51-2.1,3.27a42.73,42.73,0,0,1-6-1.39c-.46-.11-.91-.25-2-.55.57,1.29.87,2.17,1.32,3a52.44,52.44,0,0,1,2.83,4.68c.89,2,.23,3-1.89,2.8a60.75,60.75,0,0,1-7-1.43l-1.45-.33a26.68,26.68,0,0,0,1.22,2.49c.92,1.49,1.87,3,2.87,4.39a2.56,2.56,0,0,1,.21,3.09c-3.32,1.44-6.36-1.21-10-.83.3.68.41,1.35.8,1.68a4.83,4.83,0,0,0,2.3,1.36c4.79.48,9.59.8,14.4,1.14a4.34,4.34,0,0,0,1.25-.32l-.58-5.23c1.4.6,2.35,1,3.27,1.42q5.74,2.71,11.47,5.47a4,4,0,0,0,1.12.52,96.67,96.67,0,0,0,9.86,1,44.94,44.94,0,0,1,9.12,1.1,1.57,1.57,0,0,1,.63.35c.11.1.12.3.25.66a4.37,4.37,0,0,1-1.51.49c-2.23-.15-4.45-.41-6.67-.63-1.07-.1-2.15-.18-3.22-.31-2.13-.25-4.25-.55-6.38-.8a9.82,9.82,0,0,0-4.64.37c-2.86,1-5.87,1.6-8.82,2.38-.8.21-1.6.41-2.39.64C741.6,301,740.56,301.33,739.62,300.46Z"/><path d="M906,524.14c-.7,1.75-2.21,1.67-3.27,1.83-5,.74-8.94,3.29-12.71,6.36-1.46,1.19-3,2.24-5,3.62l-.58-4.23-3.7.59a15.74,15.74,0,0,0-.31,2.22q0,8.76,0,17.5c0,2.29.31,2.27,2.37,3.1,6.24,2.52,12.66,2.14,19.12,1.47a11.49,11.49,0,0,1,1.73.13c-.56,1.31-1,2.4-1.63,3.78l4.14,1.75c-1.42,1.8-3,.42-4.61.66-.15,1.22-.3,2.42-.5,4.09-1.2-.68-2.2-1.15-3.09-1.78-2.31-1.63-4.63-3.25-6.83-5-1.89-1.53-4.16-2-6.39-2.54-1.39-.32-2.63-1.71-4.55-.58a12.52,12.52,0,0,1-.48,2.61,4.81,4.81,0,0,1-1.54,2.33c-1,.62-1.94-.12-2.59-.92-1.62-2-3.17-4.06-4.77-6.08-.49-.61-1-1.17-1.7-1.91-.36.6-.63.85-.67,1.14-.38,2.88-.79,5.76-1,8.65a3.48,3.48,0,0,1-2.44,3.22,33.37,33.37,0,0,1-2.81-2.88c-1.13-1.44-2-3-3.14-4.5a30.71,30.71,0,0,0-2.65-2.67c-.22,1.29-.36,2-.45,2.63-.34,2.79-.59,5.59-1.06,8.36a2.59,2.59,0,0,1-1.46,1.75,2.53,2.53,0,0,1-2.15-.74c-1.77-2.09-3.37-4.32-5-6.5-.44-.57-.9-1.12-1.39-1.72-.36.27-.69.4-.71.56q-.66,4.68-1.25,9.38a1.81,1.81,0,0,0,1.35,2.11c1.49.49,2.35-.16,2.35-1.8,0-.4,0-.8-.09-1.64a7.66,7.66,0,0,1,2.11.61c2.26,1.56,4.49,3.16,6.65,4.86A18.39,18.39,0,0,0,861.4,577c2.24.69,4.73.81,6.77,2.47-.88,1.08-1.89.78-2.8.52-2.4-.67-4.74-1.65-7.17-2.1a24.13,24.13,0,0,0-5.7,0c-2,.13-4,.52-6,.66a15.44,15.44,0,0,1-2.89-.44c.7-1.38,1.22-2.38,1.93-3.76-2.12-.39-3.68-2.06-6.21-1.12-2.91,1.09-6,1.67-9,2.48a26.93,26.93,0,0,0-10.62,5.21C818.39,582,817,583,815.52,584c-.59.42-1.26.71-2.3,1.29-.22-1.51-.39-2.66-.6-4.08a14.27,14.27,0,0,0-2.71.23c-3.8,1.1-7.56,2.3-11.35,3.39-.44.13-1-.15-1.52-.24l-.15-.52a7.52,7.52,0,0,1,1.89-1.32c3.56-1.09,7.14-2.09,10.73-3.06,2.65-.72,2.73-.82,1.57-3.29a5.68,5.68,0,0,1-.2-.91,5.08,5.08,0,0,1,1.55-.47c3.16.1,6.31.34,9.47.4a16,16,0,0,0,4.42-.42c4.37-1.17,8.69-2.52,13-3.79,1.43-.42,1.84-1.4,1.95-2.81.23-2.73.59-5.46,1-8.17.38-2.3,2.14-2.92,3.69-1.23,1.79,2,3.31,4.16,5,6.24.48.61,1,1.19,1.81,2.1a14.52,14.52,0,0,0,.64-2c.34-2.55.71-5.11.91-7.67.12-1.39.59-2.68,1.89-2.89a3.7,3.7,0,0,1,2.73,1.26c1.32,1.47,2.31,3.24,3.51,4.83.76,1,1.27,2.36,3,2.6.44-2.58.86-5.08,1.26-7.58a4.78,4.78,0,0,0,0-1c0-1.49.16-3,1.76-3.5s2.38.94,3.18,2c1.42,1.83,2.72,3.77,4.11,5.64.38.51.87.93,1.65,1.77a9.58,9.58,0,0,0,.73-2.34c0-7.58,0-15.15,0-23.11l-3,2.13a3.33,3.33,0,0,1-2-2.31,21.07,21.07,0,0,1-.92-7.38c0-1,.18-2.22-1.23-2.9-2,1.2-2.58,3.52-4,5.15-.88,1-1.6,2.14-2.55,3.06-1.47,1.42-3.1,1-3.48-1-.43-2.35-.61-4.76-.81-7.16-.1-1.16,0-2.35-1.28-3.24-3.42,2.44-4.43,7.19-8.5,9.25-2.16-1.41-2.1-3.8-2.52-5.89a25.16,25.16,0,0,1-.12-4c-.07-2.31-.5-2.83-2.7-3.47-3.83-1.1-7.64-2.23-11.48-3.3a10.44,10.44,0,0,0-2-.12c-.2,1.31-.38,2.42-.62,4a16.41,16.41,0,0,1-2.36-1.14c-2.49-1.81-4.85-3.81-7.43-5.47a20.35,20.35,0,0,0-5.22-2.25c-3.66-1.06-7.4-1.85-11.07-2.87a10.79,10.79,0,0,1-2.43-1.47l.12-.51c.51-.1,1.07-.39,1.51-.26,4.86,1.35,9.64,3,14.57,4.08,2.78.58,5.78.12,8.68,0,1.07,0,2.12-.47,3.19-.55a30.37,30.37,0,0,1,3.38.17c-.69,1.6-1.2,2.81-1.79,4.18,4.84,1.37,9.27,2.67,13.74,3.87a4.88,4.88,0,0,0,2.46,0,53.51,53.51,0,0,0,8.54-2.64c2.3-1,4.23-2.87,6.34-4.34,1.68-1.16,3.38-2.3,5.48-3.73.38,1.71.65,2.93.92,4.1,1.54.49,2.85-1.58,4.42-.06-.83,1.57-2.54,1.62-4.25,2.33l2,3.86a12.72,12.72,0,0,1-2.53.36c-1.49-.11-3-.42-4.45-.61-5.07-.68-9.91.37-14.65,2a5,5,0,0,0-.9.63c.11,3.53-.25,7.11,1.61,10.83a17.92,17.92,0,0,0,1.85-1.85c1-1.34,1.8-2.82,2.84-4.11s2.22-2.36,3.31-3.5a4.38,4.38,0,0,1,2.62,3.78c.25,3,.63,5.88,1,9.18a10,10,0,0,0,3.59-3.53c1.14-1.53,2.2-3.14,3.44-4.59,1.48-1.72,3.24-1.45,4,.69a10.54,10.54,0,0,1,.36,3.93,14.37,14.37,0,0,0,1.56,6.65,12.17,12.17,0,0,0,1.85-2,5.59,5.59,0,0,1,3.86-2.87,18.64,18.64,0,0,0,2.72-1.07l-2-3.19a6.66,6.66,0,0,1,1.79-.59c3,0,6,0,9,.31,3.3.36,6.22-.81,9.26-1.62C903.16,524,904.4,523.44,906,524.14Z"/><path d="M563.87,592.84c.46-.94.86-1.91,1.38-2.81q8.94-15.56,18-31.07c1.15-2,1.48-3.82.38-5.87-.85-1.57-1.07-3,.36-4.56.55-.59.47-1.88.47-2.85,0-11.42-.19-22.84.14-34.24a19.45,19.45,0,0,0-3.06-11c-5.5-9.28-10.83-18.67-16.2-28a12.27,12.27,0,0,1-.75-2.11l.66-.4a8.77,8.77,0,0,1,1.53,1.58q9.24,15.94,18.4,31.94c.92,1.6,1.36,1.71,3.24,1A5.4,5.4,0,0,1,590,504c1.71-.07,2.56.85,2,2.49-.71,2.2-1.74,4.3-2.58,6.45-.31.8-.48,1.64-.78,2.71,4.17-.32,7.06-3.94,11.33-3,1.21,4.35-2.72,7.17-3.07,11.25,3.74,0,6.44-3.16,10.51-3.49,1.43.19,1.25,1.87,1.56,3l10.23,4.29a9.65,9.65,0,0,0-.24-2.33c-.83-2.08-1.74-4.13-2.69-6.16-.49-1-.78-2,.14-3a2.18,2.18,0,0,1,2.75-.3c1.9.84,3.8,1.68,5.73,2.45a25.56,25.56,0,0,0,2.77.78c-.29-4.19-3.91-7-3.2-11.12,3.57-1.54,6,1.51,9,2,.09-.12.26-.27.24-.38-.47-3.08,1.25-5.4,2.65-7.83q6.44-11.11,12.86-22.22c1.58-2.73,3.12-5.47,4.71-8.19a19.22,19.22,0,0,1,1.37-1.75c1.18,1.14.54,2,0,2.83-2.5,4.3-5,8.6-7.5,12.91-3.57,6.19-7.1,12.4-10.69,18.58-.73,1.25-1.06,2.39-.26,3.73a11.78,11.78,0,0,1,.79,2.1,2.19,2.19,0,0,1-.81,2.87c-1.35.84-1.5,2.08-1.47,3.46.13,6.41.29,12.82.35,19.23.06,6.25,0,12.5,0,18.75a8.38,8.38,0,0,0,1.19,4.49c4.25,7.23,8.38,14.52,12.56,21.8,2,3.52,4.05,7.06,6.09,10.57.49.83.94,1.6-.41,2.62-3.82-5.89-7.08-12-10.55-18s-6.91-11.89-10.35-17.8c-1.37.35-2.54.74-3.74.95-1.74.3-2.61-.51-2.26-2.22a18.52,18.52,0,0,1,1.23-3.51c.76-1.81,1.58-3.59,2.38-5.38l-.38-.49a11.42,11.42,0,0,0-2,.46c-2.21.94-4.39,2-6.58,2.93a2,2,0,0,1-2.53-.21,2.1,2.1,0,0,1-.34-2.53c.91-2.14,1.82-4.27,2.65-6.44a20.69,20.69,0,0,0,.63-3c-2.94,1.33-5.33,2.41-7.73,3.48a6.54,6.54,0,0,1-1.65.55c-1.5.21-2.16-.37-2.22-1.92,0-.83.08-1.66.12-2.4l-10.67-4.3a22.25,22.25,0,0,0,.66,2.74c.82,2,1.7,4,2.59,5.92a2.38,2.38,0,0,1-.3,3c-.88.86-1.75.56-2.74.09-1.87-.89-3.78-1.69-5.71-2.45a16.87,16.87,0,0,0-2.48-.57l-.43.49c.91,2.09,1.74,4.21,2.75,6.25.69,1.41,1.42,3,.33,4.19s-2.86.25-4.21-.14a42.29,42.29,0,0,1-4.93-2.19c.69,5.19-2.1,8.71-4.31,12.5-5,8.61-10,17.28-14.91,25.92a26.22,26.22,0,0,1-1.51,2.57,7.54,7.54,0,0,1-1.52,1.27Zm62.49-83.67-.43.54c1,2.35,2,4.69,3,7.05a6.07,6.07,0,0,1,.53,1.89c.14,1.93-.68,2.69-2.51,2.17-1.5-.42-2.9-1.21-4.39-1.68s-2.82-1.8-4.63-1.4c.29,3.93,4.06,6.85,3,11.12-4.26,1.22-7.08-2.75-10.86-2.82-.24,3.32,1,4.2,4,3,.92-.37,1.7-.64,2.45.26a2.1,2.1,0,0,1,.42,2.51c-1.07,2.23-2,4.53-3.06,6.77-.37.8-.65,1.48,0,2.2a2.71,2.71,0,0,0,.62-.1c2.43-1.06,4.81-2.22,7.28-3.16a4,4,0,0,1,2.82,0c1.05.5.83,1.68.44,2.67-.55,1.37-1.23,2.7-1.67,4.11s-1.82,2.64-1.14,4.58a15.77,15.77,0,0,0,2.16-.58c1.59-.69,3.17-1.44,4.73-2.19a4.45,4.45,0,0,1,4.08-.13c.1.36.2.67.26,1,.31,1.88-.85,3.31-1.5,4.9s-1.88,3.12-1.48,5.07c2.84-.14,3.39-.65,3.39-3.21q0-19.62,0-39.23c0-.66-.1-1.31-.16-2.06C631.25,511.18,629,509.72,626.36,509.17ZM587,517.64v31.6c2.58,1.15,4.75,2.87,7.87,3.07-.27-.85-.39-1.32-.57-1.76-1-2.22-2-4.4-2.83-6.66s0-3.44,2.46-2.93a32.8,32.8,0,0,1,4.63,1.72c1.43.54,2.77,1.46,4.47,1.11-.63-3.84-4.22-6.8-3-11.07l3-.49c1.43-3.2,2.79-6.25,4.14-9.3l-.37-.48a20.51,20.51,0,0,0-2.72.72c-1.85.74-3.67,1.56-5.48,2.41a2.48,2.48,0,0,1-3.19-.4c-.84-.91-.38-1.84.06-2.77.64-1.35,1.26-2.71,1.85-4.08s1-2.52,1.69-4.27a13.5,13.5,0,0,0-2.32.44c-2.08.85-4.09,1.85-6.19,2.62A17.69,17.69,0,0,1,587,517.64ZM587,514.5a46.86,46.86,0,0,0,2-4.35c.48-1.38,2-2.59.87-4.58L587,507ZM604.86,532c1.95.93,2.92-.55,4.49-1-.53-1.45-1-2.76-1.48-4.06l-.51-.06Zm8.06,2.9h.9c.46-1.24.91-2.48,1.57-4.29l-3.35.92Zm-5.7-1.17v.79l4.23,1.66c-.41-1.41-.62-2.16-.94-3.24Z"/><path d="M105.18,549.26c.36-3.45.67-6.9,1.09-10.33a10.55,10.55,0,0,1,1-3.53c.7-1.33,1.72-1.49,2.92-.61a11.46,11.46,0,0,1,2.26,2.3c1.42,1.84,2.71,3.78,4.13,5.62.7.91,1.57,1.68,2.75,2.93a16.73,16.73,0,0,0,1-3.89,10.28,10.28,0,0,1,1.58-5.39c2.08-3.69,4.12-7.41,6.16-11.13,1.4-2.55.91-3.39-2-3.62-.72-.05-1.43-.19-2.49-.33a8.22,8.22,0,0,1,1.09-1.62q4.44-3.82,8.94-7.59a22.54,22.54,0,0,0,5.52-6.69c2.28-4.24,4.56-8.48,6.89-12.69a16.22,16.22,0,0,1,1.72-2.16c1.26,1.26.65,2.21.15,3.13-2.43,4.45-4.84,8.91-7.31,13.33a20.63,20.63,0,0,0-2.61,8.69c-.28,3.46-1.08,6.88-1.68,10.31a5.24,5.24,0,0,1-.74,1.23l-4.07-3.63-8.31,15a9.89,9.89,0,0,0,1.33,1.12c4.72,2.62,9.44,5.25,14.21,7.77a12.69,12.69,0,0,0,3.51,1c3,.57,6,1.1,9,1.58,1.39.22,2.81.24,4.21.45,1.61.24,1.91,1.12.84,2.39-.69.81-1.42,1.59-2.38,2.67,1.36.87,2.46,1.67,3.65,2.32,3,1.64,6.05,3.16,9,4.85,1.05.61,2.61.89,2.69,2.55-.71,1-1.41.65-2.19.22-3.94-2.16-7.89-4.29-11.83-6.43l-2.48-1.36-1.92,5.54c-1-.94-1.93-1.68-2.7-2.57-2.62-3-5-6.24-7.82-9.07a29.27,29.27,0,0,0-6.08-4.24c-3.07-1.82-6.24-3.46-9.41-5.11a16.35,16.35,0,0,0-2.66-.86c-.09,1.22-.14,2-.21,2.85a3.31,3.31,0,0,1-2,3c-1.2.51-2.12-.28-2.82-1.11-2-2.41-3.95-4.9-5.93-7.36-.55-.68-1.13-1.35-1.82-2.17a7.83,7.83,0,0,0-1.5,4.67c0,1.59.1,3.18-.06,4.75a16.81,16.81,0,0,1-.92,4.1c-.77,2.07-2.32,2.46-3.79.83-2-2.21-3.75-4.65-5.61-7L95,540.84a2.87,2.87,0,0,0-1.47,2.85,44.74,44.74,0,0,1-.08,4.49,46.43,46.43,0,0,1-1,6.11c-.44,1.73-2.84,2-4.27.46-1.62-1.78-3-3.81-4.46-5.69-1.07-1.34-2.22-2.61-3.34-3.92l-.56.18a17.33,17.33,0,0,0-.36,1.74c-.35,3.47-.57,7-1.08,10.41A4.21,4.21,0,0,1,76.55,560c-1,.63-1.93-.2-2.58-1-2.23-2.67-4.39-5.4-6.59-8.11-.46-.55-.94-1.08-1.68-1.92a19,19,0,0,0-1.31,6.07c-.11,1.33,0,2.67-.1,4a12,12,0,0,1-.46,2.94c-.83,2.51-2.7,3-4.49,1.09s-3.54-4.39-5.3-6.6c-.76-1-1.54-1.89-2.46-3A6.72,6.72,0,0,0,50,557.79a44.21,44.21,0,0,1-.07,4.75,21.9,21.9,0,0,1-1.06,4.58,1.78,1.78,0,0,1-2.81,1,12.27,12.27,0,0,1-2.87-2.66c-1.85-2.24-3.58-4.58-5.38-6.86a13.44,13.44,0,0,0-1.18-1.09c-.29.78-.75,1.37-.67,1.87.65,4.06-1.48,7.2-3.29,10.46s-3.61,6.93-5.7,10.22c-1.44,2.27-1.79,4.81-2.36,7.26a76.55,76.55,0,0,0-1.16,9.09,4.61,4.61,0,0,1-1.8,3.62,13.24,13.24,0,0,1-.37-1.88c0-4.25-.06-8.5,0-12.74a5.21,5.21,0,0,1,.93-2.45c1.23-2,2.69-3.78,3.84-5.78,2.4-4.17,4.65-8.42,7.07-12.84l-7.48-4.14-3.06-1.7a2.08,2.08,0,0,1-1.07-2.75c4,1.59,7.48,4,11.28,5.77,1.13-.93,1.21-2.2,1.45-3.39a7.79,7.79,0,0,1,.27-1.47c.74-1.71,2.16-2,3.55-.64a57.06,57.06,0,0,1,4.12,4.67c1.2,1.49,2.25,3.09,3.41,4.61a7.3,7.3,0,0,0,1.11,1c.25-.25.53-.41.55-.59.39-3.55.76-7.11,1.12-10.66,0-.33-.07-.73.08-1,.57-1,1-2.2,1.89-2.73,1.09-.68,2.29.11,3,1,1.71,2.15,3.3,4.38,5,6.55.79,1,1.69,2,2.91,3.36a29.68,29.68,0,0,0,1.42-7.54c.05-1.25-.06-2.51.11-3.74.24-1.73.6-3.48,2.53-4.28A7.42,7.42,0,0,1,69,549.64c1.49,2.1,3.11,4.12,4.66,6.18.55.73,1.06,1.5,1.59,2.24l.8-.33a11.35,11.35,0,0,0,.72-2.4c.12-1.83,0-3.68.12-5.49a25.91,25.91,0,0,1,1-5.1c.66-2.21,2.4-2.68,3.9-1,2.31,2.6,4.41,5.4,6.6,8.1.45.56.93,1.09,1.73,2a10.78,10.78,0,0,0,.79-2.1c.38-3.3.71-6.61,1-9.92.12-1.23.44-2.34,1.7-2.81a2.77,2.77,0,0,1,3.32,1.07c1.7,2.16,3.33,4.36,5,6.52.79,1,1.65,2,2.47,3Z"/><path d="M132.7,393.63l-5.76-.95a66.58,66.58,0,0,1-6.61-1.13c-5.62-1.55-11-.25-16.5.82-1,.21-2.07.62-3.18-.31l1.7-3.39c-6.28-1.7-12.69-2-18.93-3.85.79-1.52,1.81-1.2,2.74-1q5.49.9,11,1.84c1.59.27,3,1.51,5,.57l.6-3.46c1.81-.19,2.92.95,4.18,1.61,2.64,1.38,5.13,3.13,7.89,4.18a42.18,42.18,0,0,0,7.74,1.6c3.27.56,6.55,1,10.13,1.59l1.88-3.4c1,.88,1.85,1.58,2.63,2.37s1.5,1.66,2.3,2.56c1.38-1.26.82-2.58.88-3.74.07-1.32.2-2.5,2.21-3l3.94,4.6,1.69-6.46c3.11,0,3.7,3.06,5.77,4.24,1.27-2.13-.78-5.34,2.66-6.81l4.38,4.66c.36-1.63.58-3,1-4.29.24-.81.55-1.93,1.16-2.22,1.07-.5,1.72.61,2.34,1.4.8,1,1.61,2,2.42,3l.64-.19c.09-.67.23-1.34.27-2a14.68,14.68,0,0,1,.08-2.49,2.58,2.58,0,0,1,1.14-1.69,2.29,2.29,0,0,1,2,.49,40.3,40.3,0,0,1,3,3.58l1.54-1.67c1.41,1.43.37,2.49-.12,3.69-3,.25-3.35-3.2-5.65-4.08-.94,2.21.59,5.13-2.34,6.7l-4.74-4.58c-.33,1.78-.5,3.15-.85,4.47a3.42,3.42,0,0,1-1.12,2c-.34.2-1.37-.38-1.84-.85-1.15-1.14-2.16-2.43-3.64-4.13-.09,1.35-.16,2.13-.2,2.91a7.83,7.83,0,0,1-.11,2.23,3.3,3.3,0,0,1-1.39,1.86c-.43.19-1.41-.32-1.87-.79-1.06-1-1.94-2.26-3-3.52a4.7,4.7,0,0,0-1.22,3.38,11.11,11.11,0,0,1-.1,2.24,1.29,1.29,0,0,1-2.25.76,16.18,16.18,0,0,1-1.81-2.05c-.55-.66-1.09-1.35-1.89-2.33-1,2.5.39,5.24-2.08,6.94-2.93.23-2.84-3.55-5.08-4.27-.22.14-.46.21-.47.32-.46,3.18-.83,6.37-1.35,9.55s-1.13,6.14-1.71,9.21c0,.25-.15.48-.19.72-.36,2.78-.64,5.57-1.11,8.33-.44,2.59-1.14,5.14-1.63,7.73-.35,1.87-.51,3.78-.79,5.66-.39,2.7-.81,5.39-1.25,8.35.59-.07.88-.09,1.15-.14,1.77-.33,2.8.59,2.39,2.26s-.9,3-1.45,4.8c2.76.16,4.12-2.94,6.8-2.65,1.95,2.37-.45,4.86-.1,7.65,1.55-.9,2.81-1.6,4-2.38.92-.58,1.9-.93,2.77-.18s.55,1.78.18,2.77c-.48,1.3-.81,2.66-1.26,4.21,2.66-.17,4-3.38,6.74-2.5,1.53,2.42-.54,4.65-.26,7.08,2.56-.35,4-3.3,7-2.17,1,2.26-1.06,4.39-.51,6.78,2.18-.57,3.63-3,6.26-2.61,1.42,2.43-.19,4.77-.54,7.49,4.24-2.38,8.29-4.18,11.78-6.76s6.28-5.83,9.53-8.93l1.36,3.64,3.88-1.29c.23,2.32-2.53,1.74-2.63,3.8.19.24.68.78,1.1,1.36.79,1.1.51,1.86-.78,2.19a6.52,6.52,0,0,1-1,.11c-3.37.35-6.76.64-10.12,1.08a7,7,0,0,0-3.89,2c2.17,3.64,4.13,7.21,6.4,10.55a24.24,24.24,0,0,0,4.14,3.94c1.28,1.15,2.61,2.25,3.92,3.37-.82,1.39-1.54.82-2.18.32-1.44-1.13-2.9-2.24-4.26-3.46-2.05-1.86-4.61-2.56-7.15-3.37s-4.83-1.62-7.67-2.58a19.82,19.82,0,0,1,1.4-1.8,13.26,13.26,0,0,1,1.45-1.17c-1.35-2.17-1.91-2.36-3.84-1.72a14.82,14.82,0,0,1-2.28.41c-1.82-2.58.57-4.9.17-7.74-1.18.84-2,1.42-2.76,1.95a4.17,4.17,0,0,1-1.54.81,4,4,0,0,1-2.5-.21c-.42-.28-.38-1.49-.25-2.24.25-1.44.71-2.84,1.21-4.76-1.47.81-2.44,1.4-3.45,1.88s-2.06.86-3.08,1.28c-2.14-2.7.31-5,0-7.72-1.15.67-2,1.21-2.94,1.72a6.71,6.71,0,0,1-2,1,2.48,2.48,0,0,1-2-.35,2.75,2.75,0,0,1-.28-2c.26-1.42.72-2.8,1.27-4.81l-6.44,3.3c-1.69-2.69,0-5,.18-7.92l-4.49,2.45c-.79.42-1.58,1.18-2.47.3a2.47,2.47,0,0,1-.47-2.78c.42-1.22.69-2.5,1.12-4.11l-1.72.38a7.38,7.38,0,0,1-2.39.46c-2.7-.38-5.37-.93-8.06-1.43s-5.17-1-7.76-1.42a12.29,12.29,0,0,0-2.47.12l.34,3.9c-2.3-.25-3.85-1.74-5.66-2.62-2.52-1.23-5-2.62-7.45-3.91a3.77,3.77,0,0,0-1.17-.4c-4.24-.65-8.5-1.22-12.73-1.93-1.47-.25-3.09-.33-4.55-1.95a8.75,8.75,0,0,1,2.13-.34,92.11,92.11,0,0,1,11,1.84,24.44,24.44,0,0,0,8.39.7c2.79-.22,5.55-.87,8.32-1.35,1-.18,2.1-.63,3.07.33l-.91,3.65,17.36,3a8.21,8.21,0,0,0,1-2.15c.67-4.18,1.16-8.39,1.84-12.56.45-2.77,1.18-5.5,1.67-8.27s.76-5.39,1.23-8.07,1.1-5.48,1.66-8.22c.07-.32.17-.64.22-1,.32-1.86.67-3.72.93-5.59A21.54,21.54,0,0,0,132.7,393.63ZM168,469.83l-.63-.51-3,1.57,2.41,1.91C167.25,471.59,167.61,470.71,168,469.83Z"/><path d="M325,110.82c-.81,3.08-.08,5.86-2,8.07-3.1-.24-3.29-3.94-5.81-5.06a9.8,9.8,0,0,0-1.22,5.3c0,.86,0,1.9-1,2a3.11,3.11,0,0,1-2.09-.87,21.32,21.32,0,0,1-1.61-2.19c-.62-.72-1.36-1.33-2.36-2.29a13.25,13.25,0,0,0-.48,2c-.05,1.33.08,2.68-.06,4-.07.65-.5,1.66-.95,1.78a3,3,0,0,1-2.2-.56,12.89,12.89,0,0,1-1.68-2.15c-.56-.67-1.19-1.27-2.09-2.21a11.71,11.71,0,0,0-.55,2c-.09,1.24,0,2.5-.12,3.74s-.74,2.19-2,2.09c-2.95-.25-4.1,2.33-6.08,3.75,1.91.45,3.84.82,5.72,1.36,1.72.49,2,1.4.75,2.64s-2.87,2.49-4.49,3.87c1.68.76,3.18,1.5,5,1.31,1-.11,2.26-.05,2.37,1.2.07.71-.61,1.59-1.16,2.21a17.91,17.91,0,0,1-2,1.47c-.66.55-1.24,1.19-2,1.95,2.66,1.54,6-.49,8,2.5-.88,2.65-4.24,3-5.43,5.43l7.15,1.4c.23,3.71-3.63,3.92-4.83,6.28,1.27,1.19,2.83,1.23,4.41,1.17,1.28,0,2.52,0,3.21,1.58l-1.9,2.45,4.87,6.17c.65-3,1.18-5.43,1.78-8.21,3.35.47,3.64,4.18,6.12,5.21,1.9-2,.64-4.53,1.36-6.73,1.49-1,2.47-.21,3.37.89s2,2.4,3.13,3.83c1.77-2.66-.55-6.13,2.45-8,1.46.22,2,1.5,2.82,2.52s1.61,1.79,2.64,2.94c.82-2.69.11-5.39,2.05-7.58,2.84.27,3.56,3.33,6,5l1.26-7.44c3.62-.33,4,3.57,6.5,4.89l1.32-1.95a2.39,2.39,0,0,1-.24,3.52c-.81.76-1.61.63-2.72-.65s-2.14-2.67-3.46-4.34c-.48,2.46-.81,4.47-1.29,6.45a2.65,2.65,0,0,1-1.14,1.64c-.34.16-1.21-.37-1.6-.8-1.24-1.43-2.37-3-3.89-4.87a19.75,19.75,0,0,0-.86,2.81,22.94,22.94,0,0,0,0,3c0,.88-.09,1.86-1.11,1.94a3.4,3.4,0,0,1-2.16-.73,13.84,13.84,0,0,1-1.72-2.12c-.55-.65-1.16-1.25-1.94-2.09-1.3,2.73.6,5.93-2.43,7.8-2.82-.45-3-3.95-5.49-5.2-.4,2-.73,3.82-1.19,5.64-.16.66-.61,1.72-1,1.73a3.18,3.18,0,0,1-2.13-.88c-.88-.86-1.49-2-2.29-2.94a7.28,7.28,0,0,0-1.52-1,22.69,22.69,0,0,0-.58,2.52,20.5,20.5,0,0,1-.06,2.49,3.91,3.91,0,0,1-1.13,2.25c-.91.64-1.68-.21-2.28-.93-.48-.57-.88-1.21-1.38-1.77s-1.25-1.27-2.18-2.21a15.33,15.33,0,0,1-.58,2.2,12.78,12.78,0,0,1-1.61,3c-1.19,1.39-2.32,1-2.78-.74l-1.4-5.4c-2.38,1.34-2.48,4.84-5.28,5.59-2.69-1.65-1-4.9-2.82-7.29l-2.33,3.31a8.61,8.61,0,0,1-1,1.41c-.45.42-1.23,1.08-1.52.94a3.25,3.25,0,0,1-1.57-1.68c-.5-1.63-.72-3.35-1.19-5.72-.85,1.11-1.37,1.75-1.84,2.42-.62.89-1.12,1.86-1.8,2.7-1,1.27-2.25,1.07-2.77-.5s-1-3.46-1.53-5.56a6.4,6.4,0,0,0-1.45,1.1c-.71,1-1.21,2.19-1.95,3.17-.4.55-1.25,1.28-1.69,1.16a2.88,2.88,0,0,1-1.59-1.62,24.16,24.16,0,0,1-.65-3.43c-.13-.62-.36-1.22-.62-2.08-2.35,1.67-2.41,5-5.58,6a12.24,12.24,0,0,1-1.25-2.51c-.33-1.31-1.09-1.92-2.31-1.74a40.79,40.79,0,0,0-6,1.23c-6.3,2-12.54,4.13-18.84,6.11s-13,3.9-19.43,5.87c-1.33.41-2.62,1-4,1.4-.34.11-.74,0-1.36-.43.65-.52,1.22-1.29,2-1.53,5.37-1.68,10.79-3.18,16.15-4.87,7.23-2.28,14.43-4.69,21.64-7,2.11-.69,4.27-1.27,6.32-2.1,3.14-1.27,3.68-2.54,2.56-5.65-.42-1.17,0-1.9,1.1-2a8,8,0,0,1,3.38.41,6.48,6.48,0,0,0,4.26.18c-1.22-2-2.32-3.78-3.39-5.53,1-1.74,1.57-2,3.65-1.54a20.61,20.61,0,0,0,5.35.54c-.88-1.36-1.79-2.71-2.64-4.09-.52-.85-1.16-1.75-.33-2.74a2.32,2.32,0,0,1,3-.39c1.69.78,3.46.84,5.75,1-1-1.65-1.84-3-2.67-4.22-.56-.86-1.17-1.7-.34-2.71s1.83-.83,2.94-.47c1.56.5,3.17.82,5.19,1.33a12.34,12.34,0,0,0-.66-2.3c-.53-1-1.34-1.91-1.82-2.95-.27-.58-.4-1.64-.07-2a2.85,2.85,0,0,1,2.17-.74c1.84.31,3.63.9,6,1.52a20.78,20.78,0,0,0-.84-2.71c-.42-.89-1.1-1.66-1.52-2.56-.87-1.91-.18-2.86,1.89-2.72l2,.1a8.81,8.81,0,0,1,.37-1.61c.29-.62.6-1.54,1.09-1.68a2.48,2.48,0,0,1,1.91.73c1.3,1.26,2.46,2.66,3.8,4.14,1.18-1.47.64-2.92.66-4.24a3.76,3.76,0,0,1,2.14-3.77l4.93,5.77c.86-3.14,0-6,2.19-8,1.44,0,2.15,1,2.94,2s1.7,1.77,2.94,3c.49-2.69.89-4.91,1.27-7.06a2.35,2.35,0,0,1,3.16.88,25.07,25.07,0,0,0,2.35,2.58,10,10,0,0,0,1.88,1c0-1.88,0-3.33.08-4.77.06-1-.39-2.34,1-2.78,1.19-.38,1.74.7,2.42,1.4,1.12,1.16,2,2.62,3.67,3.37,1.2-2.52-.65-5.7,2.13-8l5.37,5.56,1-2.3c1.14,1.41,1.29,3.11.45,3.79s-2.23.29-3.24-.93-1.53-2.77-3.41-3.43c-.12.75-.27,1.36-.31,2a12.77,12.77,0,0,1-.11,3,4.32,4.32,0,0,1-1.61,2.31c-.95.6-1.65-.36-2.25-1.06ZM266.4,150.28c.49,1.08.76,1.79,1.13,2.46.57,1,1.28,1.94,1.8,3,.76,1.53.16,2.45-1.55,2.29-1.55-.15-3.08-.53-4.63-.75a19.37,19.37,0,0,0-2.32,0,27.53,27.53,0,0,1,2.67,4.44,23.33,23.33,0,0,1,.75,4.62l.54.09c.71-1.08,1.4-2.18,2.15-3.24s1.45-2.56,3.47-1.76l1.62,6.73c2.34-1.82,2.79-5,5.59-5.92a5,5,0,0,1,1.52,4.11,9.18,9.18,0,0,0,.7,2.94l.59,0c.42-.57.84-1.15,1.27-1.72a17.19,17.19,0,0,1,2-2.55,2.91,2.91,0,0,1,2.12-.77c.42.07.8,1.1,1,1.75.43,1.55.73,3.14,1.14,4.94,2.49-1.53,2.44-4.8,5.22-5.74,2.26,1.85,1.73,4.81,2.63,7.14.36-.12.58-.12.66-.22.88-1.3,1.73-2.61,2.61-3.92,1.15-1.71,1.42-1.75,3.12-.62a5.85,5.85,0,0,0,1,.42c1.21-1.12,3.15-1.31,3.86-3.18-2.22-.46-4.26-.81-6.26-1.32-1.44-.37-1.69-1.26-.67-2.34a27.43,27.43,0,0,1,2.86-2.39l2-1.57c-1.95-1.25-3.78-1.13-5.59-1.23-.61,0-1.58-.56-1.7-1a3,3,0,0,1,.6-2.18c.47-.63,1.36-.94,2-1.46.86-.71,1.94-1.28,2.13-3-2.71.17-5.47.72-7.53-1.77.85-2.69,4.12-3.16,5.35-5.62l-7.26-1.53c0-3.43,3.68-3.85,5.07-5.95-.53-1.22-1.48-1.3-2.53-1.3-3,0-6,.37-8.85-.87-.95-.4-2.15-.2-3.67-.31l3.85,6c-1.45,2.18-1.51,2.13-3.66,1.48-1.69-.5-3.45-.78-5.75-1.29,1.47,2.53,2.65,4.55,3.77,6.46-1.11,1.55-2.09,1.94-3.64,1.32a37.1,37.1,0,0,0-5.17-1.25,13.41,13.41,0,0,0,.7,2.39c.45.88,1.11,1.65,1.63,2.5,1.12,1.83,1.08,1.93-1,3.12Zm29.45-25.14c-2.37-.81-4.5-.41-7.26-.49l2.69,4C293,127.53,294.65,127,295.85,125.14Z"/><path d="M558.1,249c.76-1.11,1.54-.82,2.44-.47,4,1.6,8,3.2,12,4.69a11.34,11.34,0,0,0,3.6.7c2.91.11,5.83,0,8.74.07a17.3,17.3,0,0,1,2.26.39L585,258.21l11.66,4.61a23.68,23.68,0,0,1,.25-2.86c.17-.75.34-1.73.87-2.11.89-.65,1.9-.2,2.68.58,1.41,1.42,2.8,2.85,4.23,4.24.68.66,1.45,1.24,2.17,1.84,1.37-1.08,1-2.27.9-3.4-.13-1.82-.38-3.65-.33-5.47.07-2.51,1.87-3.37,3.88-1.87a31.09,31.09,0,0,1,2.86,2.77c1.23,1.17,2.12,2.78,4.3,3.28.56-3.78.2-7.49.44-11.1a2.19,2.19,0,0,1,3.2.33c1.36,1.35,2.7,2.72,4.07,4.06.64.63,1.32,1.22,2.32,2.15a13.71,13.71,0,0,0,.43-2.17c.05-2.17,0-4.33,0-6.5,0-1.06-.21-2.3,1-2.86,1.4-.63,2.36.26,3.27,1.18,1.29,1.3,2.58,2.6,3.89,3.88.58.56,1.2,1.07,2,1.83a6.86,6.86,0,0,0,.67-1.8c0-1.58-.15-3.16-.23-4.74a12.87,12.87,0,0,1-.05-3c.51-2.45,2-2.94,3.83-1.28,1.47,1.34,2.79,2.86,4.23,4.23.75.72,1.63,1.3,2.87,2.27.71-4.24.09-8.05.54-12.17a6.28,6.28,0,0,1,2.3.46,44.17,44.17,0,0,1,3.73,3.26c1.21,1.11,2.38,2.27,3.53,3.37.36-.26.59-.36.58-.44-.42-4.34,1.71-8,3.07-11.91.65-1.88,1.48-3.7,2.36-5.86a17,17,0,0,0-1.91-.78,24.55,24.55,0,0,0-2.61-.43c1.37-1.56,2.4-2.71,3.4-3.87,1.86-2.14,3.79-4.21,5.5-6.46a14.6,14.6,0,0,0,1.62-3.59c1.25-3.16,2.51-6.31,3.66-9.5.33-.89.65-1.48,1.93-1.4a20.88,20.88,0,0,1-.64,2.9c-1.5,4-3.1,8-4.59,12a10.19,10.19,0,0,0-.57,3.15c-.09,2.58,0,5.16-.06,7.75a27.58,27.58,0,0,1-.45,3.15l-3.35-2.5a5,5,0,0,0-1,1.19c-1.11,2.85-2.15,5.74-3.24,8.6-.87,2.25-.62,2.89,1.6,3.78,3.54,1.41,7.07,2.84,10.63,4.2a6.52,6.52,0,0,0,2.21.27c3.08,0,6.17,0,9.25.08a24.46,24.46,0,0,1,2.82.36l-1.76,4c1.86.79,3.44,1.47,5,2.11,1.84.75,3.73,1.41,5.54,2.22a9.61,9.61,0,0,1,1.82,1.4l-.25.58a5.79,5.79,0,0,1-1.46-.15c-3.24-1.23-6.46-2.53-9.7-3.75-2.11-.8-2.33-.62-2.66,1.63-.07.46-.25.91-.49,1.78l-3.17-2.62a23.74,23.74,0,0,1-2.89-2.38c-4.49-5.07-10.9-6.31-16.83-8.54a3.49,3.49,0,0,0-1,.09c-.08.94-.1,1.91-.25,2.86-.27,1.8-1.28,2.33-2.77,1.3a29.1,29.1,0,0,1-3.75-3.27c-1.12-1.1-2.11-2.33-3.16-3.51l-.72.23a17.54,17.54,0,0,0-.34,2.68c0,1.9.22,3.81.33,5.72.09,1.32-.11,2.6-1.49,3.13s-2.21-.48-3-1.28c-1.55-1.51-3-3.1-4.54-4.65-.4-.4-.87-.75-1.6-1.38a5.59,5.59,0,0,0-.78,1.75c0,1.41.19,2.81.22,4.22a22.7,22.7,0,0,1-.15,4.67c-.39,2-1.27,2.19-2.72.87-1.66-1.51-3.19-3.17-4.8-4.73-.7-.67-1.46-1.27-2.63-2.27a19.77,19.77,0,0,0-.4,2.53c0,2.41,0,4.83,0,7.24,0,1.17-.18,2.18-1.66,2.52-3.51-1.32-5.11-5-8.52-7.34a21.82,21.82,0,0,0-.4,2.76c0,2.16.06,4.33.13,6.49a2.88,2.88,0,0,1-1.64,2.94c-3.82-1.21-5.42-5.38-9-7.36-1,2-.59,3.75-.35,5.53a15.49,15.49,0,0,1,.22,3.71c-.28,2.43-2,3.12-3.84,1.55-1.58-1.34-3-2.93-4.44-4.39-.61-.61-1.25-1.18-2.16-2-.25.93-.53,1.4-.46,1.82.58,3.58-1.09,6.62-2.27,9.78-.8,2.17-1.84,4.26-2.51,6.47a28.24,28.24,0,0,0-1.09,5.84c-.21,2.48-.06,5-.19,7.49a17,17,0,0,1-.71,3l-3.14-1.86c-1.79,1.11-1.69,3.16-2.46,4.72s-1.28,3.42-2,5.11c-.34.81-.85,1.55-1.25,2.29-1.21-.34-1-1-.79-1.64,1.39-3.63,2.8-7.25,4.18-10.79-.52-1.82-2.35-1.05-3.5-2a5.77,5.77,0,0,1,.6-1.19c1.48-1.8,2.9-3.67,4.54-5.31a18.3,18.3,0,0,0,4.54-7.06c1-2.81,2.22-5.52,3.29-8.3a21.17,21.17,0,0,0,.61-2.63c-3.89-1.66-7.61-3.48-11.86-4.55l-.88,4a15.85,15.85,0,0,1-2.4-1.42c-1.88-1.64-3.72-3.32-5.5-5.07-2.58-2.53-5.94-3.54-9.14-4.89-2.5-1.06-5.05-2-7.57-3.05A4.28,4.28,0,0,1,558.1,249Z"/><path d="M873,321.3l2.49,3.27c-.44.4-.6.67-.81.71-2.51.45-5,1-7.55,1.25a15.68,15.68,0,0,0-6.4,1.84c-3.48,1.94-6.92,3.95-10.35,6-.83.49-1.55,1-2.54-.24.7-.52,1.3-1,2-1.44,3.64-2.17,7.31-4.26,10.92-6.48a11.37,11.37,0,0,0,2.55-2.3c2-2.34,3.91-4.75,5.88-7.12a12.67,12.67,0,0,1,1.31-1.11c.57,1.31,1.08,2.47,1.72,4l5.23-2.82c-.1-3.29,1-6.05,2-8.85.35-1,.83-2,0-3.3a17.59,17.59,0,0,0-1.69.73c-2,1.1-4,2.3-6.11,3.32s-2.87.57-2.81-1.87a12.23,12.23,0,0,1,.58-3.15c.62-2,1.34-4.06,2.22-6.7a18.24,18.24,0,0,0-2.67.81c-2.07,1.06-4.1,2.2-6.14,3.31-.91.5-1.84,1-2.73,0a2.69,2.69,0,0,1-.37-3c.69-1.86,1.37-3.73,1.93-5.63a14.79,14.79,0,0,0,.23-2.85c-4,.92-6.51,4.54-10.66,4.5-1.4-4.39,1.65-7.79,2.07-11.91a6.77,6.77,0,0,0-1.7.34c-2,1-3.95,2.13-5.92,3.21-.36.2-.72.6-1.08.59-.94,0-2.12.08-2.73-.43s-.44-1.71-.22-2.51c.55-2,1.38-3.89,2-5.86a15.76,15.76,0,0,0,.31-2.82c-4,.83-6.57,4.46-10.7,4.29-1.5-4.19,1.77-7.45,1.69-11.25-1.86-.59-2.88,1.1-4.62,1.54-1.87-1-3.93-2-6-3.16-2.46-1.38-4.84-2.92-7.33-4.25a15.43,15.43,0,0,0-4.14-1.59c-2.57-.53-5.21-.8-7.82-1.16-1-.14-2.25.12-2.52-1.5l2.1-2.34a10.14,10.14,0,0,0-1.64-1.6c-2.5-1.46-5.05-2.84-7.58-4.27-1.25-.7-1.51-1.05-2-2.67a24.14,24.14,0,0,1,2.6,1.11c2.6,1.47,5.15,3,7.75,4.5a11.13,11.13,0,0,0,1.93.7l1.63-3.2c2,1,3,2.66,4.24,4,1.07,1.16,2,2.44,3,3.66,2.68,3.23,6.6,4.66,10,6.86,1.18.77,2.46,1.39,3.66,2.13a3.05,3.05,0,0,0,3.31.05l9.88-5.53c-.49-.69-.87-1.25-1.27-1.8l-1.44-1.94a17.55,17.55,0,0,1,2.2-.69c3-.54,6-1.14,9.07-1.49,2.41-.29,4.35-1.52,6.35-2.68,2.66-1.53,5.27-3.14,7.94-4.66a7.61,7.61,0,0,1,1.88-.5c.06,1.51-.89,1.83-1.63,2.26-2.58,1.5-5.14,3-7.78,4.42-4.35,2.28-7.12,6.16-10.16,9.77-.78.93-1.61,1.81-2.81,3.16-.54-1.68-.91-2.8-1.39-4.29l-5.4,2.79c-.08,4.11-2.75,7.6-2.6,11.94,3.92-.82,6.55-4.24,10.53-4.43a6.73,6.73,0,0,1,0,5.09c-.84,2.12-1.43,4.34-2.3,7a12.24,12.24,0,0,0,2.25-.59c2.06-1.07,4.08-2.22,6.12-3.33.36-.2.76-.54,1.12-.52.78.06,1.82.06,2.25.53a2.82,2.82,0,0,1,.22,2.27c-.66,2.3-1.52,4.55-2.25,6.83a14.23,14.23,0,0,0-.29,2.22c4.11-.7,6.77-4.55,11-4.45,1.39,4.42-1.76,7.71-2,11.94a23.92,23.92,0,0,0,3-1.09c1.62-.84,3.16-1.83,4.76-2.72a4.25,4.25,0,0,1,1.6-.56c2.14-.22,2.95.85,2.25,2.87s-1.4,4.06-2,6.11a15.09,15.09,0,0,0-.31,2.52c2.35,0,3.72-1.48,5.35-2.32s3.19-2.19,5.39-1.52a6.78,6.78,0,0,1,0,4.84c-.75,2-1.35,4-2.05,6.15,2.32.7,3.4-1.28,5.21-1.61,1.81,1.07,3.72,2.2,5.64,3.32s4.06,2.28,6,3.52c2.76,1.74,6,1.86,9,2.54,2.07.46,4.14.89,6.62,1.42l-2.58,3.19,5.09,4.07c-2.54.23-3.81-1.88-6.13-1.92l-1.44,3.46a10.08,10.08,0,0,1-1.73-1.27c-1.79-2.09-3.64-4.13-5.21-6.37-1.88-2.67-4.84-3.73-7.38-5.4-1.94-1.28-4.07-2.27-6-3.52a2.83,2.83,0,0,0-3-.27C879.66,317.31,876.4,319.28,873,321.3Z"/><path d="M473.53,377.63c-1.31-.77-2.46-1.37-3.53-2.1a15.39,15.39,0,0,1-2.28-1.91c-1.16-1.15-.76-3.26,1.21-3.21,1.48,0,3,.06,4.45.07h3.2c-.14-.86-.24-1.48-.32-2.1a29.29,29.29,0,0,1-.48-4.16c0-2.07,1.32-2.83,3.19-1.81a21.44,21.44,0,0,1,3.31,2.59c.62.52,1.18,1.1,2.08,1.94l1.71-2.59c.95-1.44,1.65-3.14,3.71-3.39,1.56-.19,2.22.08,2.53,1.62.36,1.84.45,3.73.69,5.82,1.5.76,2.81-.66,4.14-1.19a8.7,8.7,0,0,1,5.2-.35c1.55,3.39-2.25,5-2.66,8.18,2.15,0,4.18.09,6.21,0a3,3,0,0,1,3.13,1.63c-.29,3.33-4.1,3.79-5.65,6.56,2.14.49,4,.91,5.8,1.31a8.83,8.83,0,0,1,1.47.22c1.72.7,2.06,2.32.63,3.5-1.15.94-2.5,1.62-3.75,2.45-.58.38-1.13.83-2.17,1.6,2.06.69,3.57,1.17,5.07,1.7a10.93,10.93,0,0,1,2.25.95c1.59,1,1.65,2,.07,3a42.71,42.71,0,0,1-4.21,2.15c-.63.33-1.24.69-1.91,1.07,1.53,1.61,2.05,1.7,3.43.62q2.55-2,5-4.09,5.8-4.9,11.58-9.85c.37-.32.68-.71,1.22-1.29l-3.22-3.4c3.28-1.17,6.11-2.29,9-3.18a20.08,20.08,0,0,0,7.22-4.26c4.4-3.8,8.86-7.54,13.27-11.34a1.41,1.41,0,0,1,2.12,0,6.7,6.7,0,0,1-1,1.34c-5,4.18-10,8.27-14.86,12.54a19.4,19.4,0,0,0-3.53,4.45c-1.5,2.38-2.75,4.91-4.17,7.35a9.44,9.44,0,0,1-1.45,1.5l-2-3.62a11.24,11.24,0,0,0-1.3.79c-5.16,4.45-10.2,9.05-15.51,13.3-2.55,2-3.93,4.59-5.22,7.39-2.19,4.75-4.51,9.44-6.77,14.16A4.55,4.55,0,0,0,500,425c-.38,3.45-.7,6.92-1.05,10.38-.08.78-.21,1.56-.37,2.72l-3.8-2.51c-1.14,2.27-2.23,4.38-3.28,6.52q-3.27,6.7-6.52,13.43c-.35.72-.47,1.71-2,1.1a20.34,20.34,0,0,1,.86-2.64c2.84-5.89,5.72-11.76,8.58-17.65a12.94,12.94,0,0,0,.45-1.37l-4.06-1.55c.65-.74,1-1.17,1.37-1.55,2.45-2.39,5-4.69,7.32-7.17a14.6,14.6,0,0,0,2.2-3.57c2.11-4.22,4.15-8.47,6.31-12.9-2.35-1-3.09-2.83-3.13-5.18a15.46,15.46,0,0,0-.88-3.41c-1.86.15-2.6,1.62-3.65,2.57s-2.36,2.15-4.14,1.89a9.23,9.23,0,0,1-1.32-.42c0-1.64,0-3.36-.05-5.06,0-.69-.26-1.85-.62-1.94a3.43,3.43,0,0,0-2.2.53c-1.54.81-2.95,1.87-4.52,2.61a1.94,1.94,0,0,1-3-1.74,17,17,0,0,1,.42-3.66c.1-.77.25-1.53.46-2.83-1.29.29-2.11.46-2.92.67a32.73,32.73,0,0,1-5.22,1.32c-2,.16-2.54-.71-1.74-2.61s1.71-3.57,2.75-5.73c-1.88-.05-3.49-.1-5.1-.13-.75,0-1.5,0-2.25,0-1.12,0-2.13-.52-2.22-1.59a3,3,0,0,1,1.05-2.27C469.37,380,471.29,379,473.53,377.63Zm38.2,19.19-.17-.8c-1.55-.47-3.1-.92-4.64-1.42a8.51,8.51,0,0,1-2.26-.92c-1.41-1-1.43-2-.07-3,1.15-.81,2.45-1.41,3.63-2.17.77-.49,1.45-1.11,2.34-1.81-3.23-1.51-6.75-.78-9.29-3,1.07-3.08,4.72-3.73,5.64-7-1.16-.05-2-.12-2.79-.12-1.42,0-2.84,0-4.25,0-2.46-.07-2.86-.75-1.71-2.85.35-.65.83-1.23,1.21-1.87.65-1.08,1.27-2.19,2-3.43a4.78,4.78,0,0,0-3.94.25c-1.59.81-3.32,1.36-4.88,2-1.64-1.93-1.73-2-1.23-3.78a3.84,3.84,0,0,0-1.12-4.27c-3.28.89-2.8,5-5.63,6.4-2.89-1-3.83-4.81-7.17-5.37-1.32,2.9,1,5,1.19,7.74-2.95,1.92-6.32-.35-9.87.66a20.62,20.62,0,0,0,2.25,2.25c1,.72,2.17,1.2,3.22,1.86,1.43.91,1.44,2.29,0,3.13-1.08.62-2.28,1-3.35,1.66a28.23,28.23,0,0,0-2.7,2.11c2.39.86,4.3.39,6.16.54,1.18.1,2.69-.53,3.4.86s-.52,2.31-1,3.41-1.18,2.46-1.78,3.68l.42.51a22.54,22.54,0,0,0,2.5-.48c1.51-.47,2.95-1.15,4.47-1.53,1.75-.43,2.54.22,2.49,2a16,16,0,0,1-.63,3.41c-.24,1-.59,1.91.6,3l7.41-4.51c3.24,2.33.74,6,2.62,8.73.8-.55,1.54-1,2.21-1.54.84-.68,1.58-1.49,2.44-2.13,2.46-1.82,3.35-1.53,4.53,1.35,0,.11.27.15.41.22Z"/><path d="M887.9,108.52c2.11-.18,3.73-.34,5.35-.44a2.15,2.15,0,0,1,2.42,1.37,2.71,2.71,0,0,1-.72,3.19c-1.22,1-2.51,1.92-3.75,2.89-.38.3-.72.66-1.3,1.19.68.53,1.24,1,1.78,1.41.87.76,1.79,1.5,2.58,2.34s2,2,1.27,3.48c-.53,1.09-3.32,1.73-4.74,1.28-1-.3-2-.44-3.51-.77.2,1.48.33,2.4.44,3.33a35.45,35.45,0,0,1,.52,4.68c0,1.54-.85,2.15-2.33,1.66a16.09,16.09,0,0,1-3.41-1.94c-.8-.51-1.52-1.13-2.61-2-.15,1-.23,1.55-.31,2.08-.31,1.95-.53,3.92-1,5.83-.14.6-.91,1.05-1.39,1.57-2.82-1.48-3.69-4.26-5.45-6.57-2.47,2.39-1.5,6.5-4.65,8.47-3.2-1.39-2.72-5.14-4.85-7.44-2.47,1.91-2,5.88-5.22,7.45-3-1.8-2.38-5.56-4-8.09-1.84,1.3-2,1.79-1,3.49,3.58,5.8,7.2,11.57,10.81,17.35l1.69,2.74,3.24-2.77A21.8,21.8,0,0,1,869,157.4c.52,2.17.78,4.41,1.36,6.56a22.49,22.49,0,0,0,2,5.56c3.37,5.72,6.94,11.31,10.41,17a6.82,6.82,0,0,1,.48,1.47c-1.64-.12-2.16-1.15-2.75-2.1q-4.74-7.62-9.47-15.23a18.85,18.85,0,0,0-5.43-5.43c-2.2-1.54-4.22-3.35-6.53-5.21L863,157.9c-1.94-3.17-3.71-6.06-5.49-8.94-2-3.32-4.13-6.62-6.14-10a13.53,13.53,0,0,0-4.43-4.57c-4.42-2.8-8.77-5.72-13-8.83-2.81-2.09-6.06-2.63-9.25-3.49-1.59-.44-3.23-.69-4.83-1.11-.51-.14-1.34-.57-1.32-.84a3.19,3.19,0,0,1,.84-1.57,12.92,12.92,0,0,1,1.41-1.29,13.46,13.46,0,0,0-1.81-1.86c-5.09-3.44-10.22-6.83-15.32-10.27-.84-.57-1.56-1.3-2.47-2.06,1.48-1,2.28,0,3,.45,2.25,1.42,4.39,3,6.59,4.52q4.81,3.3,9.67,6.55a12.52,12.52,0,0,0,1.49.7l1.91-3.7c.88,1,1.7,1.88,2.4,2.82,1.39,1.86,2.6,3.87,4.1,5.63a25.69,25.69,0,0,0,4.48,4.24c3.76,2.71,7.67,5.22,11.7,7.94.68-2.18,2.3-2.44,4.17-2.32,1.39.09,2.8,0,4,0a2,2,0,0,0,0-2.77c-.72-1-1.44-2-2.07-3.11s-1.49-2.35-.36-3.66a3.23,3.23,0,0,1,3.93-.63,4.56,4.56,0,0,0,3.93.25,12.07,12.07,0,0,0-.51-2.37c-.59-1.45-1.36-2.83-2-4.26a2.09,2.09,0,0,1,.36-2.53,2.26,2.26,0,0,1,2.71-.57c1.64.62,3.31,1.14,5.58,1.9-.45-2.24-.65-3.86-1.11-5.4-.71-2.41-.44-3.67,1.59-5.08l6.38,3.92c.41-2.15.86-4.22,1.19-6.31.2-1.28.79-2.43,2-2.5a3.1,3.1,0,0,1,2.27,1.52,57.28,57.28,0,0,1,2.46,5.73l1.31-1.27a40,40,0,0,1,3.74-3.63c1.54-1.16,2.77-.52,2.77,1.43a44.78,44.78,0,0,1-.56,5.15C888.22,106.72,888,107.66,887.9,108.52ZM880.69,106c-2.34-2.29-1.63-5.86-4.08-7.76-.2.14-.43.21-.46.32-.43,2.25-1,4.49-1.23,6.76s-1.07,2.76-3.06,1.49c-.9-.58-1.65-1.4-2.54-2a28.89,28.89,0,0,0-2.94-1.52c.12,1.52.12,2.4.27,3.26.27,1.54.73,3.05.93,4.6.22,1.72-.62,2.45-2.41,2.07-1.38-.29-2.69-.86-4-1.25a25.75,25.75,0,0,0-2.56-.4c.94,2.15,1.66,3.7,2.3,5.29.57,1.44,1.54,3.07.35,4.44s-2.79.51-4.2.06-2.54-.7-3.82.22c.87,3,3.94,4.87,4,8.33l-3.4,1.87c1.64,2.27,1.29,5.34,3.28,7.71a9.51,9.51,0,0,0,1.11-1.36c.74-1.48,1.31-3,2.16-4.45a3.17,3.17,0,0,1,2-1.53c.52,0,1.34.87,1.69,1.54.61,1.15.9,2.47,1.45,3.67a17.25,17.25,0,0,0,1.51,2.23c2-2.89,1.58-6.51,4.27-8.57,2.73,1.5,3.28,4.53,5.3,6.41a3,3,0,0,0,1.68-2.84c0-1.16,0-2.33,0-3.49a2.39,2.39,0,0,1,1.42-2.39c2.94-.08,3.85,3.64,6.83,3.71a6.94,6.94,0,0,0-.27-4.75,5.36,5.36,0,0,1-.16-4.3,6.24,6.24,0,0,1,4.7.34,2.34,2.34,0,0,0,3.43-1.2,28.75,28.75,0,0,0-2.17-2.35c-.75-.65-1.7-1.07-2.45-1.71-1.47-1.23-1.53-2-.15-3.25,1-.89,2.12-1.58,3.17-2.38s2.09-1.46,1.39-3c-2.57-.5-3.16-.47-4.92.21s-1.92.61-3.08-1.12c.39-2.89,2.33-5.46,1.54-8.58C884.46,101.48,883.81,105.14,880.69,106Z"/><path d="M490.4,75.24c2-1.13,3.22-1.95,4.57-2.56.68-.3,1.95-.52,2.22-.19a3.33,3.33,0,0,1,.49,2.48,36.24,36.24,0,0,1-1.51,4.52c2.64,0,4.16-2.75,6.88-2.29,1.83,2.34-.79,4.64-.28,7.38l5.73-2.7a1.62,1.62,0,0,1,1.1,2.21c-.33,1-.64,2-.9,3.09-.18.69-.26,1.41-.46,2.59,1.26-.66,2.09-1.13,2.95-1.54a10.74,10.74,0,0,1,2.51-1.06c1.75-.33,2.49.68,1.88,2.36-.55,1.51-1.08,3-1.65,4.64,2.83.37,4.37-3,7.17-1.89,1.34,2.39-1.17,4.57-.53,6.79,3.67-1.74,7.27-3.39,10.83-5.14a8.84,8.84,0,0,0,2.17-1.65c2.1-2,4.15-4.09,6.23-6.13.57-.55,1.18-1.07,2-1.83.28.87.5,1.37.61,1.89.39,1.84,1,2.26,2.76,1.57.84-.33,1.59-1,2.57.27l-3.52,2.21,2.13,3.85c-1.22.17-2.15.35-3.09.43-3.14.25-6.3.36-9.43.73s-5.88,2.07-8.79,3.37c.19,1.5,1,1.93,2.21,1.78l1.88-3a7.54,7.54,0,0,1,1.27,1.32,58.13,58.13,0,0,1,3.17,5.92c1.74,4.08,4.86,6.88,8.23,9.5.82.64,1.94,1.13,1,2.64-3.2-2.45-6.12-5.2-9.51-7.13s-7.12-2.94-11.08-4.51l3.22-2.74c-1.61-2.54-1.59-2.48-4.31-1.67a2.93,2.93,0,0,1-2.27-.32c-.34-.25-.24-1.35-.08-2,.37-1.56.9-3.08,1.36-4.61l-.44-.33c-1,.53-2,1.08-3,1.6a12.31,12.31,0,0,1-1.8.85c-1.79.56-2.8-.38-2.33-2.22.42-1.59,1-3.14,1.6-5-2.62.29-4.22,2.85-6.69,2.66-2-2.44.9-4.78,0-7.49-1.45.75-2.69,1.36-3.89,2s-2.36.78-3.13-.87c.54-1.75,1.1-3.6,1.86-6-1.23.39-1.94.59-2.62.86a14.51,14.51,0,0,1-2.95,1.2c-2,.31-2.58-.54-1.92-2.46.51-1.46,1-2.93,1.55-4.58-2.73.12-4.23,3.26-7,2.25a4.23,4.23,0,0,1-.17-3.64c.34-1.06.6-2.15,1-3.58-4.15,1.59-7.73.21-11.34-.41-2.61-.44-5.19-1.06-7.77-1.64-.87-.2-1.72-.51-2.92-.87l-.59,4.56c-1.54-.9-2.87-1.63-4.15-2.43a68.61,68.61,0,0,0-6.09-3.87,30.93,30.93,0,0,0-6.51-2.17c-3.69-.85-7.45-1.43-11.15-2.22A14.11,14.11,0,0,1,437,58.91l.11-.62a5.42,5.42,0,0,1,1.76-.2c3.23.7,6.43,1.54,9.67,2.22,5.11,1.08,10.19,2.11,15.45.55,1.58-.47,3.41-.07,5.5-.07-.37,1.23-.67,2.2-1,3.49a26.16,26.16,0,0,0,3.19,1.16c2.25.51,4.54.83,6.79,1.3,1.87.38,3.71.92,5.58,1.29s2.46-.16,2.86-2c.48-2.34,1.17-4.64,1.68-7,.48-2.17.79-4.37,1.29-6.53.53-2.32,1.26-4.6,1.77-6.92.69-3.14,1.2-6.32,1.87-9.47.85-4,1.82-7.9,2.66-11.86.27-1.29.31-2.63.48-4.14l2,.13c-3.45,15.84-6.86,31.47-10.32,47.34a17.62,17.62,0,0,1,2-.09c1.32.1,1.77.65,1.49,2-.24,1.12-.71,2.19-1,3.3A23.75,23.75,0,0,0,490.4,75.24Z"/><path d="M640.91,374.48c1.35.92.85,1.69.36,2.5q-2.57,4.27-5.08,8.57c-1.34,2.27-2.66,4.47-2.91,7.28a60.3,60.3,0,0,1-1.88,8.41,4.5,4.5,0,0,1-.61,1l-2.86-2.51c-.63.86-1.25,1.6-1.76,2.41-1.53,2.46-3,5-4.56,7.42a2.33,2.33,0,0,0-.1,2.75c2.24,4,4.2,8.11,6.68,11.92,1.22,1.88,3.35,3.18,5.06,4.75s3.23,3,5.16,4.82l-4.15,1.55c2.06,4.26,4.68,7.89,6.16,12.17-1.55.35-1.85-.59-2.28-1.37-1.43-2.62-2.86-5.25-4.32-7.85-.35-.62-.82-1.17-1.4-2l-2.65,2.07c-1.19-.35-1.35-1.36-1.51-2.35a50,50,0,0,1-.89-6.4c0-3.25-1.5-5.91-3-8.6-1.72-3.1-3.5-6.18-5.3-9.35-1.37.55-2.65,1.43-3.77.05s.19-2.5.71-3.61a34.29,34.29,0,0,1,2.17-3.49l-.38-.5c-1.6.46-3.23.87-4.8,1.42-.9.31-1.76.71-2.53-.12a2.16,2.16,0,0,1-.06-2.77c.84-1.49,1.65-3,2.72-4.93-2.08.51-3.63,1-5.2,1.25a3.77,3.77,0,0,1-2.53-.28c-1-.74-.31-1.9.11-2.71.77-1.52,1.78-2.92,2.7-4.37l-.29-.46c-1.24.28-2.49.55-3.73.86-.31.08-.6.43-.89.42-1,0-2.35.21-3-.33-1-.8-.19-2,.34-2.9.79-1.34,1.63-2.65,2.54-4.12-2.82-.87-5.14,2-7.92.58-1.22-3,2.51-4.38,2.53-7-2.6-1-4.91,2.09-7.53.37-.81-2.84,2-4.34,2.6-6.88a10.2,10.2,0,0,1-1.39-.25,6.35,6.35,0,0,1-1-.62c1.93-1.25,2.43-1.32,4.17-.59.47,2.72-1.92,4.4-2.65,6.69,1.05.4,3.14,0,6.49-1.21l2,1.58-4,6.89c2.2-.57,3.93-.94,5.62-1.46.9-.28,1.81-.73,2.52.15a2.13,2.13,0,0,1-.14,2.76c-.62.87-1.17,1.8-1.71,2.74-.31.52-.52,1.1-1,2.25,1.75-.4,2.91-.64,4.06-.93.48-.12.94-.51,1.4-.5.79,0,2,0,2.26.43a3.33,3.33,0,0,1,.1,2.51,14.68,14.68,0,0,1-1.58,2.52c-.4.69-.72,1.42-1.35,2.7,2.13-.63,3.64-1.2,5.21-1.49a3.85,3.85,0,0,1,2.71.37c.39.31.2,1.73-.12,2.48a34.08,34.08,0,0,1-2.13,3.63,8.68,8.68,0,0,0-.45,1.12c2.81.28,5.07-2,8-1.05,1.23,3-2.22,4.52-2.53,7.17a2.12,2.12,0,0,0,2.75-.93c2.08-3.37,4.1-6.78,6.24-10.33l-3.94-2c.75-.74,1.28-1.35,1.89-1.85a57.84,57.84,0,0,1,5.47-4.34c2.51-1.59,4-3.91,5.42-6.35C636.92,381,638.91,377.8,640.91,374.48Z"/><path d="M317.22,22.72c2.4-2.66,4.91-1.49,7.45-.78l1-2.08c.57.4,1.53.79,1.51,1.13a2.18,2.18,0,0,1-1.08,1.64,6.75,6.75,0,0,1-2.63.22c-1.12,0-2.22-.2-3.93-.36.58,1,.73,1.6,1.1,1.89a4.55,4.55,0,0,0,1.81.8c3.86.74,7.73.36,11.92.23l-.7-4.1a5.77,5.77,0,0,1,1.61.1c3.17,1.23,6.31,2.53,9.47,3.77a7.09,7.09,0,0,0,1.93.42c4.72.34,9.45.64,14.17,1,.69.05,1.38.23,2.07.35l.06.69a8,8,0,0,1-1.88.45,107.79,107.79,0,0,1-11.23-.13c-3.38-.34-6.35.58-9.4,1.65-2.14.76-4.33,1.35-7,2.16.36-1.78.6-3,.86-4.3a13.57,13.57,0,0,0-1.72-.28c-3.25-.05-6.49,0-9.74-.13a3.17,3.17,0,0,0-3.11,1.62c-2.22,3.69-4.65,7.27-6.68,11.06a23.46,23.46,0,0,0-1.68,5.9c-.51,2.23-.9,4.5-1.34,6.75,0,.08-.1.13-.18.22-1.79.71-2-1.88-3.68-1.72-3.12,3.15-4.3,8-7.78,11l-.62-.32a18.67,18.67,0,0,1,1.1-2.55c1.49-2.48,3.09-4.91,4.61-7.38a20.27,20.27,0,0,0,.93-2l-3.36-2.2a24.35,24.35,0,0,1,1.79-1.83c1.69-1.35,3.36-2.74,5.15-3.94a15.92,15.92,0,0,0,5.09-5.36c2-3.44,4.16-6.77,6.27-10.19Z"/><path d="M505.13,20.24c.39,1.05.15,1.86-.95,2.07-1.45.28-1.94-.85-2.57-2.07Z"/></g></svg>